<svg xmlns="http://www.w3.org/2000/svg" viewBox="0 0 1536 1024" role="img" width="1536" height="1024">
  <title>Black Sailors and Privateers in the Revolutionary War Economy of 1776 — Retro Pixel Art Banner</title>

  <defs>
    
    <pattern id="scanlines" x="0" y="0" width="4" height="4" patternUnits="userSpaceOnUse">
      <rect x="0" y="0" width="4" height="2" fill="rgba(0,0,0,0.18)" />
    </pattern>
    
    <radialGradient id="crtglow" cx="50%" cy="50%" r="70%">
      <stop offset="0%" stop-color="#1a0a3a" stop-opacity="0" />
      <stop offset="100%" stop-color="#000010" stop-opacity="0.7" />
    </radialGradient>
    
    <linearGradient id="skygrad" x1="0" y1="0" x2="0" y2="1">
      <stop offset="0%" stop-color="#0d0030" />
      <stop offset="55%" stop-color="#1a006e" />
      <stop offset="100%" stop-color="#0a1a6e" />
    </linearGradient>
    
    <linearGradient id="seagrad" x1="0" y1="0" x2="0" y2="1">
      <stop offset="0%" stop-color="#0033aa" />
      <stop offset="100%" stop-color="#001155" />
    </linearGradient>
    
    <radialGradient id="moonglow" cx="50%" cy="50%" r="50%">
      <stop offset="0%" stop-color="#ffffaa" stop-opacity="1" />
      <stop offset="60%" stop-color="#ffee44" stop-opacity="0.4" />
      <stop offset="100%" stop-color="#ffee44" stop-opacity="0" />
    </radialGradient>
    
    <linearGradient id="flagred" x1="0" y1="0" x2="1" y2="0">
      <stop offset="0%" stop-color="#cc2200" />
      <stop offset="100%" stop-color="#ff4422" />
    </linearGradient>
  </defs>

  
  
  <rect x="0" y="0" width="1536" height="1024" fill="url(#skygrad)" />

  
  
  <rect x="80" y="48" width="4" height="4" fill="#ffffff" opacity="0.9" />
  <rect x="160" y="32" width="4" height="4" fill="#ffffff" opacity="0.8" />
  <rect x="244" y="80" width="4" height="4" fill="#aaaaff" opacity="0.7" />
  <rect x="340" y="20" width="4" height="4" fill="#ffffff" opacity="0.9" />
  <rect x="420" y="60" width="4" height="4" fill="#ffffff" opacity="0.6" />
  <rect x="500" y="36" width="4" height="4" fill="#aaaaff" opacity="0.85" />
  <rect x="580" y="72" width="4" height="4" fill="#ffffff" opacity="0.7" />
  <rect x="700" y="28" width="4" height="4" fill="#ffffff" opacity="0.9" />
  <rect x="780" y="56" width="4" height="4" fill="#ffffff" opacity="0.75" />
  <rect x="860" y="16" width="4" height="4" fill="#aaaaff" opacity="0.8" />
  <rect x="940" y="68" width="4" height="4" fill="#ffffff" opacity="0.65" />
  <rect x="1020" y="40" width="4" height="4" fill="#ffffff" opacity="0.9" />
  <rect x="1100" y="24" width="4" height="4" fill="#aaaaff" opacity="0.7" />
  <rect x="1180" y="76" width="4" height="4" fill="#ffffff" opacity="0.8" />
  <rect x="1280" y="48" width="4" height="4" fill="#ffffff" opacity="0.9" />
  <rect x="1360" y="20" width="4" height="4" fill="#aaaaff" opacity="0.75" />
  <rect x="1440" y="64" width="4" height="4" fill="#ffffff" opacity="0.85" />
  <rect x="120" y="120" width="4" height="4" fill="#ffffff" opacity="0.5" />
  <rect x="300" y="104" width="4" height="4" fill="#ffffff" opacity="0.6" />
  <rect x="640" y="96" width="4" height="4" fill="#ffffff" opacity="0.55" />
  <rect x="960" y="112" width="4" height="4" fill="#ffffff" opacity="0.6" />
  <rect x="1200" y="100" width="4" height="4" fill="#aaaaff" opacity="0.5" />
  <rect x="1480" y="88" width="4" height="4" fill="#ffffff" opacity="0.7" />
  
  <rect x="200" y="148" width="4" height="4" fill="#ffffff" opacity="0.4" />
  <rect x="460" y="128" width="4" height="4" fill="#aaaaff" opacity="0.5" />
  <rect x="820" y="140" width="4" height="4" fill="#ffffff" opacity="0.45" />
  <rect x="1060" y="132" width="4" height="4" fill="#ffffff" opacity="0.5" />
  <rect x="1320" y="120" width="4" height="4" fill="#aaaaff" opacity="0.55" />

  
  <rect x="1340" y="64" width="8" height="8" fill="#ffffaa" />
  <rect x="1332" y="72" width="8" height="8" fill="#ffffaa" />
  <rect x="1348" y="72" width="8" height="8" fill="#ffffaa" />
  <rect x="1328" y="80" width="8" height="8" fill="#ffffaa" />
  <rect x="1336" y="80" width="8" height="8" fill="#ffffff" />
  <rect x="1344" y="80" width="8" height="8" fill="#ffffff" />
  <rect x="1352" y="80" width="8" height="8" fill="#ffffaa" />
  <rect x="1328" y="88" width="8" height="8" fill="#ffffaa" />
  <rect x="1336" y="88" width="8" height="8" fill="#ffffff" />
  <rect x="1344" y="88" width="8" height="8" fill="#ffffff" />
  <rect x="1352" y="88" width="8" height="8" fill="#ffffaa" />
  <rect x="1332" y="96" width="8" height="8" fill="#ffffaa" />
  <rect x="1340" y="96" width="8" height="8" fill="#ffffaa" />
  <rect x="1348" y="96" width="8" height="8" fill="#ffffaa" />
  <rect x="1340" y="104" width="8" height="8" fill="#ffffaa" />
  
  <circle cx="1352" cy="88" r="60" fill="url(#moonglow)" opacity="0.5" />

  
  
  <rect x="0" y="620" width="1536" height="404" fill="url(#seagrad)" />

  
  
  <rect x="0" y="608" width="48" height="16" fill="#0044cc" />
  <rect x="64" y="608" width="48" height="16" fill="#0044cc" />
  <rect x="128" y="608" width="48" height="16" fill="#0044cc" />
  <rect x="192" y="608" width="48" height="16" fill="#0044cc" />
  <rect x="256" y="608" width="48" height="16" fill="#0044cc" />
  <rect x="320" y="608" width="48" height="16" fill="#0044cc" />
  <rect x="384" y="608" width="48" height="16" fill="#0044cc" />
  <rect x="448" y="608" width="48" height="16" fill="#0044cc" />
  <rect x="512" y="608" width="48" height="16" fill="#0044cc" />
  <rect x="576" y="608" width="48" height="16" fill="#0044cc" />
  <rect x="640" y="608" width="48" height="16" fill="#0044cc" />
  <rect x="704" y="608" width="48" height="16" fill="#0044cc" />
  <rect x="768" y="608" width="48" height="16" fill="#0044cc" />
  <rect x="832" y="608" width="48" height="16" fill="#0044cc" />
  <rect x="896" y="608" width="48" height="16" fill="#0044cc" />
  <rect x="960" y="608" width="48" height="16" fill="#0044cc" />
  <rect x="1024" y="608" width="48" height="16" fill="#0044cc" />
  <rect x="1088" y="608" width="48" height="16" fill="#0044cc" />
  <rect x="1152" y="608" width="48" height="16" fill="#0044cc" />
  <rect x="1216" y="608" width="48" height="16" fill="#0044cc" />
  <rect x="1280" y="608" width="48" height="16" fill="#0044cc" />
  <rect x="1344" y="608" width="48" height="16" fill="#0044cc" />
  <rect x="1408" y="608" width="48" height="16" fill="#0044cc" />
  <rect x="1472" y="608" width="64" height="16" fill="#0044cc" />
  
  <rect x="16" y="600" width="32" height="8" fill="#4488ff" />
  <rect x="80" y="600" width="32" height="8" fill="#4488ff" />
  <rect x="144" y="600" width="32" height="8" fill="#4488ff" />
  <rect x="208" y="600" width="32" height="8" fill="#4488ff" />
  <rect x="272" y="600" width="32" height="8" fill="#4488ff" />
  <rect x="336" y="600" width="32" height="8" fill="#4488ff" />
  <rect x="400" y="600" width="32" height="8" fill="#4488ff" />
  <rect x="464" y="600" width="32" height="8" fill="#4488ff" />
  <rect x="528" y="600" width="32" height="8" fill="#4488ff" />
  <rect x="592" y="600" width="32" height="8" fill="#4488ff" />
  <rect x="656" y="600" width="32" height="8" fill="#4488ff" />
  <rect x="720" y="600" width="32" height="8" fill="#4488ff" />
  <rect x="784" y="600" width="32" height="8" fill="#4488ff" />
  <rect x="848" y="600" width="32" height="8" fill="#4488ff" />
  <rect x="912" y="600" width="32" height="8" fill="#4488ff" />
  <rect x="976" y="600" width="32" height="8" fill="#4488ff" />
  <rect x="1040" y="600" width="32" height="8" fill="#4488ff" />
  <rect x="1104" y="600" width="32" height="8" fill="#4488ff" />
  <rect x="1168" y="600" width="32" height="8" fill="#4488ff" />
  <rect x="1232" y="600" width="32" height="8" fill="#4488ff" />
  <rect x="1296" y="600" width="32" height="8" fill="#4488ff" />
  <rect x="1360" y="600" width="32" height="8" fill="#4488ff" />
  <rect x="1424" y="600" width="32" height="8" fill="#4488ff" />
  <rect x="1488" y="600" width="32" height="8" fill="#4488ff" />

  
  <rect x="32" y="640" width="64" height="16" fill="#0033aa" />
  <rect x="128" y="640" width="64" height="16" fill="#0033aa" />
  <rect x="256" y="640" width="64" height="16" fill="#0033aa" />
  <rect x="384" y="640" width="64" height="16" fill="#0033aa" />
  <rect x="512" y="640" width="64" height="16" fill="#0033aa" />
  <rect x="640" y="640" width="64" height="16" fill="#0033aa" />
  <rect x="768" y="640" width="64" height="16" fill="#0033aa" />
  <rect x="896" y="640" width="64" height="16" fill="#0033aa" />
  <rect x="1024" y="640" width="64" height="16" fill="#0033aa" />
  <rect x="1152" y="640" width="64" height="16" fill="#0033aa" />
  <rect x="1280" y="640" width="64" height="16" fill="#0033aa" />
  <rect x="1408" y="640" width="64" height="16" fill="#0033aa" />
  <rect x="48" y="632" width="32" height="8" fill="#5599ff" opacity="0.6" />
  <rect x="144" y="632" width="32" height="8" fill="#5599ff" opacity="0.6" />
  <rect x="272" y="632" width="32" height="8" fill="#5599ff" opacity="0.6" />
  <rect x="400" y="632" width="32" height="8" fill="#5599ff" opacity="0.6" />
  <rect x="528" y="632" width="32" height="8" fill="#5599ff" opacity="0.6" />
  <rect x="656" y="632" width="32" height="8" fill="#5599ff" opacity="0.6" />
  <rect x="784" y="632" width="32" height="8" fill="#5599ff" opacity="0.6" />
  <rect x="912" y="632" width="32" height="8" fill="#5599ff" opacity="0.6" />
  <rect x="1040" y="632" width="32" height="8" fill="#5599ff" opacity="0.6" />
  <rect x="1168" y="632" width="32" height="8" fill="#5599ff" opacity="0.6" />
  <rect x="1296" y="632" width="32" height="8" fill="#5599ff" opacity="0.6" />
  <rect x="1424" y="632" width="32" height="8" fill="#5599ff" opacity="0.6" />

  
  <rect x="1280" y="624" width="8" height="8" fill="#4466ff" opacity="0.7" />
  <rect x="1296" y="632" width="16" height="8" fill="#5577ff" opacity="0.5" />
  <rect x="1280" y="648" width="24" height="8" fill="#4466ff" opacity="0.4" />
  <rect x="1300" y="660" width="16" height="8" fill="#3355ee" opacity="0.35" />

  
  
  
  <rect x="420" y="540" width="520" height="80" fill="#3d1a00" />
  
  <rect x="432" y="532" width="496" height="12" fill="#5a2800" />
  
  <rect x="440" y="616" width="480" height="16" fill="#2a1000" />
  <rect x="456" y="628" width="448" height="12" fill="#1a0800" />
  <rect x="480" y="636" width="400" height="8" fill="#100500" />
  
  <rect x="432" y="548" width="496" height="8" fill="#8b4a00" />
  <rect x="432" y="580" width="496" height="8" fill="#8b4a00" />
  
  <rect x="464" y="556" width="24" height="20" fill="#1a0800" />
  <rect x="468" y="560" width="16" height="12" fill="#000000" />
  <rect x="524" y="556" width="24" height="20" fill="#1a0800" />
  <rect x="528" y="560" width="16" height="12" fill="#000000" />
  <rect x="584" y="556" width="24" height="20" fill="#1a0800" />
  <rect x="588" y="560" width="16" height="12" fill="#000000" />
  <rect x="644" y="556" width="24" height="20" fill="#1a0800" />
  <rect x="648" y="560" width="16" height="12" fill="#000000" />
  <rect x="704" y="556" width="24" height="20" fill="#1a0800" />
  <rect x="708" y="560" width="16" height="12" fill="#000000" />
  <rect x="764" y="556" width="24" height="20" fill="#1a0800" />
  <rect x="768" y="560" width="16" height="12" fill="#000000" />
  <rect x="824" y="556" width="24" height="20" fill="#1a0800" />
  <rect x="828" y="560" width="16" height="12" fill="#000000" />
  <rect x="884" y="556" width="24" height="20" fill="#1a0800" />
  <rect x="888" y="560" width="16" height="12" fill="#000000" />

  
  <rect x="456" y="562" width="16" height="8" fill="#555555" />
  <rect x="516" y="562" width="16" height="8" fill="#555555" />
  <rect x="576" y="562" width="16" height="8" fill="#555555" />
  <rect x="636" y="562" width="16" height="8" fill="#555555" />
  <rect x="696" y="562" width="16" height="8" fill="#555555" />
  <rect x="756" y="562" width="16" height="8" fill="#555555" />
  <rect x="816" y="562" width="16" height="8" fill="#555555" />
  <rect x="876" y="562" width="16" height="8" fill="#555555" />

  
  <rect x="440" y="504" width="480" height="36" fill="#6b3200" />
  <rect x="440" y="504" width="480" height="4" fill="#8b4a00" />

  
  <rect x="388" y="548" width="40" height="56" fill="#3d1a00" />
  <rect x="372" y="560" width="24" height="44" fill="#3d1a00" />
  <rect x="360" y="572" width="20" height="32" fill="#2a1000" />
  
  <rect x="300" y="498" width="100" height="8" fill="#5a2800" />
  <rect x="240" y="488" width="80" height="8" fill="#5a2800" transform="rotate(-8 240 492)" />

  
  <rect x="940" y="540" width="36" height="60" fill="#3d1a00" />
  <rect x="968" y="548" width="20" height="52" fill="#2a1000" />

  
  
  <rect x="672" y="100" width="16" height="440" fill="#4a2000" />
  
  <rect x="552" y="160" width="12" height="380" fill="#4a2000" />
  
  <rect x="820" y="200" width="12" height="340" fill="#4a2000" />
  
  <rect x="430" y="340" width="8" height="200" fill="#4a2000" />

  
  
  <rect x="572" y="108" width="216" height="8" fill="#5a2800" />
  
  <rect x="560" y="220" width="240" height="8" fill="#5a2800" />
  
  <rect x="552" y="360" width="256" height="8" fill="#5a2800" />

  
  <rect x="464" y="168" width="176" height="8" fill="#5a2800" />
  <rect x="456" y="276" width="192" height="8" fill="#5a2800" />
  <rect x="452" y="388" width="200" height="8" fill="#5a2800" />

  
  <rect x="740" y="208" width="160" height="8" fill="#5a2800" />
  <rect x="748" y="300" width="148" height="8" fill="#5a2800" />

  
  
  <rect x="580" y="116" width="200" height="96" fill="#e8ddb0" />
  <rect x="580" y="116" width="200" height="4" fill="#c8b880" />
  <rect x="580" y="208" width="200" height="4" fill="#c8b880" />
  
  <rect x="568" y="228" width="224" height="124" fill="#ddd0a0" />
  <rect x="568" y="228" width="224" height="4" fill="#b8a060" />
  <rect x="568" y="348" width="224" height="4" fill="#b8a060" />
  
  <rect x="560" y="368" width="240" height="128" fill="#ccc090" />
  <rect x="560" y="368" width="240" height="4" fill="#a08050" />
  <rect x="560" y="492" width="240" height="4" fill="#a08050" />

  
  <rect x="472" y="176" width="160" height="92" fill="#e0d4a8" />
  <rect x="472" y="176" width="160" height="4" fill="#c0a860" />
  
  <rect x="464" y="284" width="176" height="96" fill="#d4c898" />
  <rect x="464" y="284" width="176" height="4" fill="#b0904a" />
  
  <rect x="460" y="396" width="184" height="100" fill="#c8bc88" />
  <rect x="460" y="396" width="184" height="4" fill="#a08040" />

  
  <rect x="748" y="216" width="144" height="76" fill="#ddd0a0" />
  <rect x="748" y="216" width="144" height="4" fill="#b8a060" />
  <rect x="756" y="308" width="132" height="88" fill="#ccc090" />
  <rect x="756" y="308" width="132" height="4" fill="#a08050" />
  
  <rect x="820" y="400" width="100" height="8" fill="#c0b080" />
  <rect x="824" y="408" width="88" height="8" fill="#c0b080" />
  <rect x="828" y="416" width="76" height="8" fill="#c0b080" />
  <rect x="832" y="424" width="64" height="8" fill="#c0b080" />
  <rect x="836" y="432" width="52" height="8" fill="#c0b080" />
  <rect x="840" y="440" width="40" height="8" fill="#c0b080" />
  <rect x="844" y="448" width="28" height="8" fill="#c0b080" />
  <rect x="848" y="456" width="16" height="8" fill="#c0b080" />

  
  
  
  <rect x="680" y="100" width="88" height="8" fill="#cc2200" />
  <rect x="680" y="108" width="88" height="8" fill="#f0f0f0" />
  <rect x="680" y="116" width="88" height="8" fill="#cc2200" />
  <rect x="680" y="124" width="88" height="8" fill="#f0f0f0" />
  <rect x="680" y="132" width="88" height="8" fill="#cc2200" />
  <rect x="680" y="140" width="88" height="8" fill="#f0f0f0" />
  <rect x="680" y="148" width="88" height="8" fill="#cc2200" />
  
  <rect x="680" y="100" width="44" height="32" fill="#001a8c" />
  
  <rect x="688" y="108" width="4" height="4" fill="#ffffff" />
  <rect x="700" y="104" width="4" height="4" fill="#ffffff" />
  <rect x="712" y="108" width="4" height="4" fill="#ffffff" />
  <rect x="704" y="116" width="4" height="4" fill="#ffffff" />
  <rect x="692" y="120" width="4" height="4" fill="#ffffff" />
  <rect x="716" y="120" width="4" height="4" fill="#ffffff" />

  
  <rect x="560" y="160" width="56" height="48" fill="#1a1a1a" />
  
  <rect x="572" y="168" width="24" height="16" fill="#f0f0f0" />
  <rect x="568" y="172" width="32" height="12" fill="#f0f0f0" />
  
  <rect x="576" y="172" width="6" height="6" fill="#1a1a1a" />
  <rect x="586" y="172" width="6" height="6" fill="#1a1a1a" />
  
  <rect x="582" y="178" width="4" height="4" fill="#1a1a1a" />
  
  <rect x="576" y="182" width="4" height="4" fill="#1a1a1a" />
  <rect x="584" y="182" width="4" height="4" fill="#1a1a1a" />
  <rect x="592" y="182" width="4" height="4" fill="#1a1a1a" />
  
  <rect x="564" y="188" width="36" height="4" fill="#f0f0f0" transform="rotate(45 582 190)" />
  <rect x="564" y="188" width="36" height="4" fill="#f0f0f0" transform="rotate(-45 582 190)" />

  
  
  
  <rect x="480" y="480" width="20" height="28" fill="#2a1a00" />
  
  <rect x="482" y="464" width="16" height="16" fill="#3d2200" />
  
  <rect x="478" y="456" width="24" height="8" fill="#1a1a1a" />
  <rect x="482" y="448" width="16" height="12" fill="#1a1a1a" />
  
  <rect x="468" y="484" width="12" height="8" fill="#3d2200" />
  <rect x="500" y="484" width="12" height="8" fill="#3d2200" />
  
  <rect x="480" y="508" width="8" height="16" fill="#1a3366" />
  <rect x="492" y="508" width="8" height="16" fill="#1a3366" />
  
  <rect x="456" y="482" width="16" height="4" fill="#8b6914" />

  
  <rect x="570" y="478" width="20" height="30" fill="#1a1000" />
  <rect x="572" y="462" width="16" height="16" fill="#2d1800" />
  
  <rect x="570" y="458" width="20" height="8" fill="#cc2200" />
  
  <rect x="558" y="470" width="12" height="8" fill="#2d1800" />
  <rect x="590" y="466" width="12" height="12" fill="#2d1800" />
  
  <rect x="570" y="508" width="8" height="16" fill="#333333" />
  <rect x="582" y="508" width="8" height="16" fill="#333333" />

  
  <rect x="650" y="478" width="20" height="30" fill="#d0a060" />
  <rect x="652" y="462" width="16" height="16" fill="#e0b878" />
  
  <rect x="648" y="456" width="24" height="8" fill="#1a1a1a" />
  <rect x="652" y="444" width="16" height="16" fill="#1a1a1a" />
  
  <rect x="650" y="478" width="20" height="30" fill="#001a6e" />
  
  <rect x="650" y="478" width="4" height="30" fill="#ccaa00" />
  <rect x="666" y="478" width="4" height="30" fill="#ccaa00" />
  
  <rect x="650" y="508" width="8" height="16" fill="#ccaa00" />
  <rect x="662" y="508" width="8" height="16" fill="#ccaa00" />

  
  <rect x="740" y="480" width="20" height="28" fill="#2a1200" />
  <rect x="742" y="464" width="16" height="16" fill="#3a1800" />
  
  <rect x="740" y="456" width="20" height="8" fill="#f0f0f0" />
  
  <rect x="760" y="476" width="20" height="6" fill="#6b3a00" />
  
  <rect x="740" y="508" width="8" height="16" fill="#333344" />
  <rect x="752" y="508" width="8" height="16" fill="#333344" />

  
  <rect x="860" y="480" width="20" height="28" fill="#3d2200" />
  <rect x="862" y="464" width="16" height="16" fill="#4a2800" />
  <rect x="858" y="456" width="24" height="8" fill="#222222" />
  <rect x="862" y="448" width="16" height="10" fill="#222222" />
  <rect x="860" y="480" width="20" height="28" fill="#aa3300" />
  <rect x="860" y="508" width="8" height="16" fill="#444444" />
  <rect x="872" y="508" width="8" height="16" fill="#444444" />

  
  
  <rect x="1120" y="560" width="240" height="48" fill="#2a1000" />
  <rect x="1128" y="552" width="224" height="12" fill="#3d1800" />
  
  <rect x="1224" y="320" width="8" height="256" fill="#3a1800" />
  
  <rect x="1192" y="328" width="72" height="100" fill="#c8bc88" opacity="0.85" />
  
  <rect x="1232" y="320" width="36" height="8" fill="#cc2200" />
  <rect x="1232" y="328" width="36" height="8" fill="#f0f0f0" />
  <rect x="1232" y="336" width="36" height="8" fill="#cc2200" />
  
  <rect x="1136" y="562" width="8" height="28" fill="#1a0800" />
  <rect x="1156" y="562" width="8" height="28" fill="#1a0800" />
  <rect x="1176" y="562" width="8" height="28" fill="#1a0800" />
  <rect x="1196" y="562" width="8" height="28" fill="#1a0800" />
  <rect x="1216" y="562" width="8" height="28" fill="#1a0800" />
  <rect x="1236" y="562" width="8" height="28" fill="#1a0800" />
  <rect x="1256" y="562" width="8" height="28" fill="#1a0800" />
  <rect x="1276" y="562" width="8" height="28" fill="#1a0800" />
  <rect x="1296" y="562" width="8" height="28" fill="#1a0800" />
  <rect x="1316" y="562" width="8" height="28" fill="#1a0800" />

  
  
  <rect x="440" y="558" width="16" height="12" fill="#ffcc00" />
  <rect x="428" y="562" width="16" height="8" fill="#ff8800" />
  <rect x="416" y="558" width="16" height="16" fill="#ffee44" opacity="0.8" />
  <rect x="408" y="554" width="12" height="8" fill="#ffcc00" opacity="0.7" />
  <rect x="424" y="550" width="8" height="8" fill="#ffff88" opacity="0.6" />
  <rect x="436" y="546" width="8" height="8" fill="#ffffff" opacity="0.5" />
  
  <rect x="400" y="542" width="8" height="8" fill="#888888" opacity="0.5" />
  <rect x="392" y="534" width="8" height="8" fill="#aaaaaa" opacity="0.4" />
  <rect x="384" y="524" width="8" height="8" fill="#cccccc" opacity="0.3" />
  <rect x="408" y="526" width="8" height="8" fill="#999999" opacity="0.35" />
  <rect x="396" y="516" width="8" height="8" fill="#bbbbbb" opacity="0.25" />

  
  
  <rect x="440" y="620" width="8" height="8" fill="#aaccff" opacity="0.7" />
  <rect x="456" y="618" width="8" height="8" fill="#ffffff" opacity="0.5" />
  <rect x="472" y="622" width="8" height="8" fill="#aaccff" opacity="0.6" />
  <rect x="488" y="618" width="8" height="8" fill="#ffffff" opacity="0.4" />
  <rect x="820" y="620" width="8" height="8" fill="#aaccff" opacity="0.7" />
  <rect x="836" y="618" width="8" height="8" fill="#ffffff" opacity="0.5" />
  <rect x="852" y="622" width="8" height="8" fill="#aaccff" opacity="0.6" />
  <rect x="868" y="618" width="8" height="8" fill="#ffffff" opacity="0.4" />
  <rect x="900" y="620" width="8" height="8" fill="#ffffff" opacity="0.5" />

  
  <rect x="0" y="820" width="80" height="24" fill="#0044cc" opacity="0.8" />
  <rect x="96" y="820" width="80" height="24" fill="#0044cc" opacity="0.8" />
  <rect x="192" y="820" width="80" height="24" fill="#0044cc" opacity="0.8" />
  <rect x="288" y="820" width="80" height="24" fill="#0044cc" opacity="0.8" />
  <rect x="384" y="820" width="80" height="24" fill="#0044cc" opacity="0.8" />
  <rect x="480" y="820" width="80" height="24" fill="#0044cc" opacity="0.8" />
  <rect x="576" y="820" width="80" height="24" fill="#0044cc" opacity="0.8" />
  <rect x="672" y="820" width="80" height="24" fill="#0044cc" opacity="0.8" />
  <rect x="768" y="820" width="80" height="24" fill="#0044cc" opacity="0.8" />
  <rect x="864" y="820" width="80" height="24" fill="#0044cc" opacity="0.8" />
  <rect x="960" y="820" width="80" height="24" fill="#0044cc" opacity="0.8" />
  <rect x="1056" y="820" width="80" height="24" fill="#0044cc" opacity="0.8" />
  <rect x="1152" y="820" width="80" height="24" fill="#0044cc" opacity="0.8" />
  <rect x="1248" y="820" width="80" height="24" fill="#0044cc" opacity="0.8" />
  <rect x="1344" y="820" width="80" height="24" fill="#0044cc" opacity="0.8" />
  <rect x="1440" y="820" width="96" height="24" fill="#0044cc" opacity="0.8" />
  
  <rect x="8" y="812" width="48" height="8" fill="#77bbff" opacity="0.9" />
  <rect x="104" y="812" width="48" height="8" fill="#77bbff" opacity="0.9" />
  <rect x="200" y="812" width="48" height="8" fill="#77bbff" opacity="0.9" />
  <rect x="296" y="812" width="48" height="8" fill="#77bbff" opacity="0.9" />
  <rect x="392" y="812" width="48" height="8" fill="#77bbff" opacity="0.9" />
  <rect x="488" y="812" width="48" height="8" fill="#77bbff" opacity="0.9" />
  <rect x="584" y="812" width="48" height="8" fill="#77bbff" opacity="0.9" />
  <rect x="680" y="812" width="48" height="8" fill="#77bbff" opacity="0.9" />
  <rect x="776" y="812" width="48" height="8" fill="#77bbff" opacity="0.9" />
  <rect x="872" y="812" width="48" height="8" fill="#77bbff" opacity="0.9" />
  <rect x="968" y="812" width="48" height="8" fill="#77bbff" opacity="0.9" />
  <rect x="1064" y="812" width="48" height="8" fill="#77bbff" opacity="0.9" />
  <rect x="1160" y="812" width="48" height="8" fill="#77bbff" opacity="0.9" />
  <rect x="1256" y="812" width="48" height="8" fill="#77bbff" opacity="0.9" />
  <rect x="1352" y="812" width="48" height="8" fill="#77bbff" opacity="0.9" />
  <rect x="1448" y="812" width="48" height="8" fill="#77bbff" opacity="0.9" />

  
  
  <rect x="88" y="716" width="8" height="8" fill="#ccaa00" />
  <rect x="80" y="724" width="24" height="8" fill="#ccaa00" />
  <rect x="72" y="732" width="40" height="8" fill="#ccaa00" />
  <rect x="64" y="740" width="56" height="8" fill="#ddbb22" />
  <rect x="72" y="748" width="40" height="8" fill="#ccaa00" />
  <rect x="80" y="756" width="24" height="8" fill="#ccaa00" />
  <rect x="88" y="764" width="8" height="8" fill="#ccaa00" />
  <rect x="64" y="732" width="8" height="24" fill="#ccaa00" />
  <rect x="112" y="732" width="8" height="24" fill="#ccaa00" />
  
  <rect x="88" y="740" width="8" height="8" fill="#ffffff" />
  
  <rect x="82" y="704" width="4" height="4" fill="#ffee44" />
  <rect x="86" y="704" width="4" height="4" fill="#ffee44" />
  <rect x="90" y="704" width="4" height="4" fill="#ffee44" />
  <rect x="82" y="708" width="4" height="4" fill="#ffee44" />
  <rect x="86" y="708" width="4" height="4" fill="#ffee44" />
  <rect x="90" y="708" width="4" height="4" fill="#ffee44" />
  <rect x="82" y="712" width="4" height="4" fill="#ffee44" />
  <rect x="90" y="712" width="4" height="4" fill="#ffee44" />

  
  
  <rect x="1380" y="780" width="80" height="16" fill="#cc9900" />
  <rect x="1384" y="764" width="72" height="16" fill="#ddaa00" />
  <rect x="1388" y="748" width="64" height="16" fill="#eecc22" />
  
  <rect x="1396" y="752" width="8" height="4" fill="#ffee88" />
  <rect x="1420" y="768" width="8" height="4" fill="#ffee88" />
  <rect x="1408" y="784" width="8" height="4" fill="#ffee88" />

  
  
  <rect x="60" y="848" width="1416" height="148" fill="#000820" opacity="0.88" />
  <rect x="60" y="848" width="1416" height="4" fill="#ffcc00" opacity="0.8" />
  <rect x="60" y="992" width="1416" height="4" fill="#ffcc00" opacity="0.8" />
  
  <rect x="60" y="848" width="4" height="148" fill="#ffcc00" opacity="0.8" />
  <rect x="1472" y="848" width="4" height="148" fill="#ffcc00" opacity="0.8" />

  
  <rect x="68" y="856" width="1400" height="4" fill="#0044ff" opacity="0.5" />
  <rect x="68" y="984" width="1400" height="4" fill="#0044ff" opacity="0.5" />

  
  <rect x="80" y="880" width="8" height="8" fill="#ffcc00" />
  <rect x="88" y="872" width="8" height="8" fill="#ffcc00" />
  <rect x="96" y="880" width="8" height="8" fill="#ffcc00" />
  <rect x="88" y="888" width="8" height="8" fill="#ffcc00" />
  <rect x="1432" y="880" width="8" height="8" fill="#ffcc00" />
  <rect x="1440" y="872" width="8" height="8" fill="#ffcc00" />
  <rect x="1448" y="880" width="8" height="8" fill="#ffcc00" />
  <rect x="1440" y="888" width="8" height="8" fill="#ffcc00" />

  
  <text x="768" y="902" font-family="'Courier New', Courier, monospace" font-size="52" font-weight="bold" fill="#ffdd44" text-anchor="middle" letter-spacing="2" style="image-rendering:pixelated">BLACK SAILORS &amp; PRIVATEERS</text>

  
  <text x="768" y="962" font-family="'Courier New', Courier, monospace" font-size="44" font-weight="bold" fill="#ff8844" text-anchor="middle" letter-spacing="3" style="image-rendering:pixelated">REVOLUTIONARY WAR ECONOMY · 1776</text>

  
  <rect x="600" y="914" width="336" height="4" fill="#ffcc00" opacity="0.4" />

  
  <text x="768" y="1010" font-family="'Courier New', Courier, monospace" font-size="20" fill="#aaaaff" text-anchor="middle" letter-spacing="4" opacity="0.85">★ JAMES FORTEN · PRIZE CREWS · ATLANTIC MARITIME ECONOMY · 1776 ★</text>

  
  <rect x="0" y="0" width="1536" height="1024" fill="url(#crtglow)" />
  
  <rect x="0" y="0" width="1536" height="1024" fill="url(#scanlines)" />

  
  <rect x="0" y="0" width="1536" height="1024" fill="none" stroke="#00ff44" stroke-width="6" opacity="0.08" />

</svg>