<svg xmlns="http://www.w3.org/2000/svg" viewBox="0 0 1536 1024" role="img" width="1536" height="1024">
  <title>King George III in 1776 — Retro Pixel Art Banner</title>
  <defs>
    <radialGradient id="crt" cx="50%" cy="50%" r="70%">
      <stop offset="0%" stop-color="#1a0a2e" />
      <stop offset="100%" stop-color="#050008" />
    </radialGradient>
    <filter id="glow">
      <feGaussianBlur stdDeviation="3" result="blur" />
      <feMerge><feMergeNode in="blur" /><feMergeNode in="SourceGraphic" /></feMerge>
    </filter>
    
    <pattern id="scanlines" x="0" y="0" width="1" height="4" patternUnits="userSpaceOnUse">
      <rect width="1" height="2" fill="black" opacity="0.18" />
    </pattern>
  </defs>

  
  <rect width="1536" height="1024" fill="url(#crt)" />

  
  <rect x="50" y="30" width="4" height="4" fill="#ffffff" opacity="0.5" />
  <rect x="120" y="80" width="4" height="4" fill="#ffffff" opacity="0.4" />
  <rect x="300" y="50" width="4" height="4" fill="#ffffff" opacity="0.6" />
  <rect x="500" y="20" width="4" height="4" fill="#ffffff" opacity="0.3" />
  <rect x="700" y="60" width="4" height="4" fill="#ffffff" opacity="0.5" />
  <rect x="900" y="30" width="4" height="4" fill="#ffffff" opacity="0.4" />
  <rect x="1100" y="70" width="4" height="4" fill="#ffffff" opacity="0.6" />
  <rect x="1300" y="40" width="4" height="4" fill="#ffffff" opacity="0.3" />
  <rect x="1480" y="90" width="4" height="4" fill="#ffffff" opacity="0.5" />
  <rect x="200" y="900" width="4" height="4" fill="#ffffff" opacity="0.3" />
  <rect x="400" y="950" width="4" height="4" fill="#ffffff" opacity="0.4" />
  <rect x="1400" y="920" width="4" height="4" fill="#ffffff" opacity="0.5" />
  <rect x="80" y="500" width="4" height="4" fill="#ffffff" opacity="0.3" />
  <rect x="1500" y="500" width="4" height="4" fill="#ffffff" opacity="0.4" />

  
  <rect x="0" y="820" width="1536" height="8" fill="#2d6a2d" />
  <rect x="0" y="828" width="1536" height="8" fill="#1e4d1e" />
  <rect x="0" y="836" width="1536" height="188" fill="#143614" />

  
  <rect x="100" y="812" width="8" height="8" fill="#3a8a3a" />
  <rect x="108" y="808" width="8" height="8" fill="#3a8a3a" />
  <rect x="116" y="812" width="8" height="8" fill="#3a8a3a" />
  <rect x="400" y="812" width="8" height="8" fill="#3a8a3a" />
  <rect x="408" y="808" width="8" height="8" fill="#3a8a3a" />
  <rect x="1100" y="812" width="8" height="8" fill="#3a8a3a" />
  <rect x="1108" y="808" width="8" height="8" fill="#3a8a3a" />
  <rect x="1300" y="812" width="8" height="8" fill="#3a8a3a" />

  
  
  

  
  <rect x="424" y="420" width="16" height="16" fill="#ffd700" />
  <rect x="440" y="412" width="16" height="8" fill="#ffd700" />
  <rect x="456" y="404" width="16" height="16" fill="#ffd700" />
  <rect x="472" y="412" width="16" height="8" fill="#ffd700" />
  <rect x="488" y="420" width="16" height="16" fill="#ffd700" />
  <rect x="504" y="412" width="16" height="8" fill="#ffd700" />
  <rect x="520" y="404" width="16" height="16" fill="#ffd700" />
  <rect x="536" y="412" width="16" height="8" fill="#ffd700" />
  <rect x="552" y="420" width="16" height="16" fill="#ffd700" />
  
  <rect x="416" y="436" width="168" height="16" fill="#ffd700" />
  
  <rect x="456" y="420" width="8" height="8" fill="#ff0044" />
  <rect x="520" y="420" width="8" height="8" fill="#00ccff" />
  <rect x="488" y="420" width="8" height="8" fill="#ff0044" />

  
  <rect x="416" y="452" width="168" height="8" fill="#e8d8c0" />
  
  <rect x="400" y="460" width="200" height="80" fill="#f0ece8" />
  
  <rect x="392" y="468" width="16" height="56" fill="#f0ece8" />
  <rect x="384" y="476" width="16" height="40" fill="#f0ece8" />
  
  <rect x="608" y="468" width="16" height="56" fill="#f0ece8" />
  <rect x="616" y="476" width="16" height="40" fill="#f0ece8" />

  
  <rect x="432" y="468" width="136" height="72" fill="#f5c9a0" />
  
  <rect x="456" y="484" width="16" height="16" fill="#222244" />
  <rect x="528" y="484" width="16" height="16" fill="#222244" />
  
  <rect x="464" y="484" width="4" height="4" fill="#ffffff" />
  <rect x="536" y="484" width="4" height="4" fill="#ffffff" />
  
  <rect x="496" y="500" width="8" height="8" fill="#d4956a" />
  
  <rect x="472" y="520" width="56" height="8" fill="#c0705a" />
  <rect x="480" y="516" width="8" height="4" fill="#c0705a" />
  <rect x="512" y="516" width="8" height="4" fill="#c0705a" />

  
  <rect x="472" y="540" width="56" height="16" fill="#f5c9a0" />

  
  <rect x="400" y="556" width="200" height="200" fill="#cc1111" />
  
  <rect x="400" y="556" width="16" height="200" fill="#b8860b" />
  <rect x="584" y="556" width="16" height="200" fill="#b8860b" />
  <rect x="400" y="556" width="200" height="16" fill="#b8860b" />
  
  <rect x="492" y="580" width="8" height="8" fill="#ffd700" />
  <rect x="492" y="604" width="8" height="8" fill="#ffd700" />
  <rect x="492" y="628" width="8" height="8" fill="#ffd700" />
  <rect x="492" y="652" width="8" height="8" fill="#ffd700" />
  <rect x="492" y="676" width="8" height="8" fill="#ffd700" />
  
  <rect x="456" y="556" width="88" height="40" fill="#ffffff" />
  <rect x="464" y="572" width="8" height="24" fill="#dddddd" />
  <rect x="528" y="572" width="8" height="24" fill="#dddddd" />

  
  <rect x="336" y="556" width="64" height="24" fill="#cc1111" />
  <rect x="320" y="580" width="32" height="96" fill="#cc1111" />
  
  <rect x="312" y="676" width="32" height="24" fill="#f5c9a0" />
  
  <rect x="320" y="500" width="8" height="200" fill="#b8860b" />
  <rect x="308" y="500" width="32" height="16" fill="#ffd700" />
  <rect x="312" y="488" width="24" height="16" fill="#ffd700" />
  <rect x="316" y="476" width="16" height="16" fill="#ff0044" />

  
  <rect x="600" y="556" width="64" height="24" fill="#cc1111" />
  <rect x="648" y="580" width="32" height="80" fill="#cc1111" />
  
  <rect x="656" y="660" width="24" height="16" fill="#f5c9a0" />

  
  <rect x="424" y="756" width="72" height="64" fill="#ffffff" />
  <rect x="504" y="756" width="72" height="64" fill="#ffffff" />
  
  <rect x="424" y="756" width="72" height="8" fill="#cccccc" />
  <rect x="504" y="756" width="72" height="8" fill="#cccccc" />
  
  <rect x="408" y="788" width="88" height="32" fill="#222222" />
  <rect x="488" y="788" width="88" height="32" fill="#222222" />
  
  <rect x="440" y="796" width="16" height="16" fill="#ffd700" />
  <rect x="520" y="796" width="16" height="16" fill="#ffd700" />

  
  <rect x="376" y="556" width="24" height="180" fill="#660000" />
  <rect x="600" y="556" width="24" height="180" fill="#660000" />
  
  <rect x="380" y="580" width="8" height="8" fill="#000000" />
  <rect x="380" y="608" width="8" height="8" fill="#000000" />
  <rect x="380" y="636" width="8" height="8" fill="#000000" />
  <rect x="380" y="664" width="8" height="8" fill="#000000" />
  <rect x="604" y="580" width="8" height="8" fill="#000000" />
  <rect x="604" y="608" width="8" height="8" fill="#000000" />
  <rect x="604" y="636" width="8" height="8" fill="#000000" />

  
  <rect x="1050" y="300" width="8" height="520" fill="#8B6914" />
  
  <rect x="1058" y="300" width="320" height="200" fill="#012169" />
  
  
  <rect x="1058" y="300" width="40" height="40" fill="#ffffff" />
  <rect x="1098" y="340" width="40" height="40" fill="#ffffff" />
  <rect x="1138" y="380" width="40" height="40" fill="#ffffff" />
  <rect x="1178" y="420" width="40" height="40" fill="#ffffff" />
  <rect x="1218" y="460" width="40" height="40" fill="#ffffff" />
  <rect x="1258" y="460" width="40" height="40" fill="#ffffff" />
  <rect x="1298" y="420" width="40" height="40" fill="#ffffff" />
  <rect x="1338" y="380" width="40" height="40" fill="#ffffff" />
  
  <rect x="1338" y="300" width="40" height="40" fill="#ffffff" />
  <rect x="1298" y="340" width="40" height="40" fill="#ffffff" />
  <rect x="1258" y="380" width="40" height="40" fill="#ffffff" />
  <rect x="1218" y="420" width="40" height="40" fill="#ffffff" />
  <rect x="1178" y="460" width="40" height="40" fill="#ffffff" />
  <rect x="1138" y="420" width="40" height="40" fill="#ffffff" />
  <rect x="1098" y="380" width="40" height="40" fill="#ffffff" />
  <rect x="1058" y="340" width="40" height="40" fill="#ffffff" />
  
  <rect x="1058" y="380" width="320" height="40" fill="#cc0000" />
  
  <rect x="1218" y="300" width="40" height="200" fill="#cc0000" />
  
  <rect x="1058" y="372" width="320" height="8" fill="#ffffff" />
  <rect x="1058" y="420" width="320" height="8" fill="#ffffff" />
  <rect x="1210" y="300" width="8" height="200" fill="#ffffff" />
  <rect x="1258" y="300" width="8" height="200" fill="#ffffff" />

  
  <rect x="80" y="380" width="280" height="380" fill="#f5e6c0" />
  <rect x="80" y="380" width="280" height="16" fill="#d4bc88" />
  <rect x="80" y="744" width="280" height="16" fill="#d4bc88" />
  <rect x="80" y="380" width="16" height="380" fill="#d4bc88" />
  <rect x="344" y="380" width="16" height="380" fill="#d4bc88" />
  
  <rect x="104" y="412" width="232" height="8" fill="#8B6914" />
  <rect x="104" y="428" width="232" height="8" fill="#8B6914" />
  <rect x="104" y="444" width="200" height="8" fill="#8B6914" />
  <rect x="104" y="468" width="232" height="8" fill="#443322" />
  <rect x="104" y="484" width="232" height="8" fill="#443322" />
  <rect x="104" y="500" width="180" height="8" fill="#443322" />
  <rect x="104" y="516" width="232" height="8" fill="#443322" />
  <rect x="104" y="532" width="232" height="8" fill="#443322" />
  <rect x="104" y="548" width="200" height="8" fill="#443322" />
  <rect x="104" y="564" width="232" height="8" fill="#443322" />
  <rect x="104" y="580" width="160" height="8" fill="#443322" />
  <rect x="104" y="596" width="232" height="8" fill="#443322" />
  <rect x="104" y="612" width="232" height="8" fill="#443322" />
  <rect x="104" y="628" width="190" height="8" fill="#443322" />
  <rect x="104" y="644" width="232" height="8" fill="#443322" />
  <rect x="104" y="660" width="232" height="8" fill="#443322" />
  <rect x="104" y="676" width="150" height="8" fill="#443322" />
  
  <rect x="112" y="404" width="216" height="16" fill="#cc1111" opacity="0.7" />
  
  <rect x="192" y="700" width="56" height="40" fill="#cc0000" />
  <rect x="200" y="708" width="40" height="24" fill="#aa0000" />
  <rect x="212" y="712" width="16" height="16" fill="#ffd700" />

  
  <rect x="1100" y="740" width="200" height="48" fill="#444444" />
  <rect x="1092" y="748" width="16" height="32" fill="#333333" />
  <rect x="1292" y="748" width="16" height="32" fill="#333333" />
  <rect x="1100" y="736" width="200" height="16" fill="#555555" />
  
  <rect x="1300" y="756" width="120" height="32" fill="#666666" />
  <rect x="1300" y="752" width="120" height="8" fill="#888888" />
  <rect x="1408" y="760" width="24" height="16" fill="#555555" />
  
  <rect x="1108" y="788" width="64" height="64" fill="#553300" />
  <rect x="1116" y="780" width="48" height="8" fill="#553300" />
  <rect x="1100" y="796" width="8" height="48" fill="#553300" />
  <rect x="1164" y="796" width="8" height="48" fill="#553300" />
  <rect x="1108" y="844" width="64" height="8" fill="#553300" />
  <rect x="1132" y="788" width="16" height="64" fill="#553300" />
  
  <rect x="1124" y="804" width="32" height="32" fill="#774400" />

  <rect x="1228" y="788" width="64" height="64" fill="#553300" />
  <rect x="1236" y="780" width="48" height="8" fill="#553300" />
  <rect x="1220" y="796" width="8" height="48" fill="#553300" />
  <rect x="1284" y="796" width="8" height="48" fill="#553300" />
  <rect x="1228" y="844" width="64" height="8" fill="#553300" />
  <rect x="1252" y="788" width="16" height="64" fill="#553300" />
  <rect x="1244" y="804" width="32" height="32" fill="#774400" />

  
  <rect x="1420" y="752" width="24" height="24" fill="#222222" />

  
  <rect x="0" y="0" width="1536" height="1024" fill="url(#scanlines)" />

  
  <radialGradient id="vignette" cx="50%" cy="50%" r="70%">
    <stop offset="60%" stop-color="transparent" />
    <stop offset="100%" stop-color="#000000" stop-opacity="0.6" />
  </radialGradient>
  <rect x="0" y="0" width="1536" height="1024" fill="url(#vignette)" />

  
  
  
  <text x="506" y="222" font-family="monospace, 'Courier New'" font-size="96" font-weight="bold" fill="#000000" opacity="0.6" letter-spacing="2">KING GEORGE III</text>
  <text x="730" y="318" font-family="monospace, 'Courier New'" font-size="96" font-weight="bold" fill="#000000" opacity="0.6" letter-spacing="2">IN 1776</text>
  
  <text x="500" y="216" font-family="monospace, 'Courier New'" font-size="96" font-weight="bold" fill="#ffd700" filter="url(#glow)" letter-spacing="2">KING GEORGE III</text>
  <text x="724" y="312" font-family="monospace, 'Courier New'" font-size="96" font-weight="bold" fill="#ffd700" filter="url(#glow)" letter-spacing="2">IN 1776</text>

  
  <rect x="540" y="336" width="456" height="44" fill="#cc1111" />
  <rect x="540" y="336" width="456" height="6" fill="#ff4444" />
  <text x="768" y="367" font-family="monospace, 'Courier New'" font-size="24" font-weight="bold" fill="#ffffff" text-anchor="middle" letter-spacing="4">AMERICAN REVOLUTION • 1776</text>

  
  
  <rect x="24" y="24" width="48" height="8" fill="#ffd700" />
  <rect x="24" y="24" width="8" height="48" fill="#ffd700" />
  
  <rect x="1464" y="24" width="48" height="8" fill="#ffd700" />
  <rect x="1504" y="24" width="8" height="48" fill="#ffd700" />
  
  <rect x="24" y="992" width="48" height="8" fill="#ffd700" />
  <rect x="24" y="968" width="8" height="32" fill="#ffd700" />
  
  <rect x="1464" y="992" width="48" height="8" fill="#ffd700" />
  <rect x="1504" y="968" width="8" height="32" fill="#ffd700" />

  
  <text x="768" y="970" font-family="monospace, 'Courier New'" font-size="28" font-weight="bold" fill="#00ffcc" text-anchor="middle" opacity="0.8" filter="url(#glow)" letter-spacing="6">► INSERT COIN TO CONTINUE ◄</text>

  
  <text x="80" y="100" font-family="monospace, 'Courier New'" font-size="32" font-weight="bold" fill="#00ff88" letter-spacing="3">YEAR: 1776</text>
  <text x="80" y="140" font-family="monospace, 'Courier New'" font-size="32" font-weight="bold" fill="#ff8800" letter-spacing="3">PLAYER: GEO.III</text>
  <text x="1200" y="100" font-family="monospace, 'Courier New'" font-size="32" font-weight="bold" fill="#00ff88" letter-spacing="3">HI-SCORE</text>
  <text x="1200" y="140" font-family="monospace, 'Courier New'" font-size="32" font-weight="bold" fill="#ffffff" letter-spacing="3">1760-1820</text>
</svg>