<svg xmlns="http://www.w3.org/2000/svg" viewBox="0 0 1536 1024" role="img" width="1536" height="1024">
  <title>The Treaty of Watertown – Pixel Art Banner</title>
  <defs>
    <radialGradient id="crt" cx="50%" cy="50%" r="70%">
      <stop offset="0%" stop-color="#1a0a2e" />
      <stop offset="100%" stop-color="#0a0514" />
    </radialGradient>
    <filter id="glow">
      <feGaussianBlur stdDeviation="3" result="blur" />
      <feMerge><feMergeNode in="blur" /><feMergeNode in="SourceGraphic" /></feMerge>
    </filter>
    <filter id="glow2">
      <feGaussianBlur stdDeviation="6" result="blur" />
      <feMerge><feMergeNode in="blur" /><feMergeNode in="SourceGraphic" /></feMerge>
    </filter>
    
    <pattern id="scanlines" x="0" y="0" width="2" height="4" patternUnits="userSpaceOnUse">
      <rect x="0" y="0" width="2" height="2" fill="rgba(0,0,0,0.18)" />
    </pattern>
  </defs>

  
  <rect width="1536" height="1024" fill="url(#crt)" />

  
  <g fill="#3a2060" opacity="0.7">
    <rect x="40" y="60" width="4" height="4" />
    <rect x="120" y="30" width="4" height="4" />
    <rect x="200" y="80" width="4" height="4" />
    <rect x="340" y="20" width="4" height="4" />
    <rect x="480" y="50" width="4" height="4" />
    <rect x="600" y="30" width="4" height="4" />
    <rect x="700" y="70" width="4" height="4" />
    <rect x="850" y="15" width="4" height="4" />
    <rect x="950" y="55" width="4" height="4" />
    <rect x="1100" y="35" width="4" height="4" />
    <rect x="1250" y="65" width="4" height="4" />
    <rect x="1400" y="25" width="4" height="4" />
    <rect x="1480" y="80" width="4" height="4" />
    <rect x="80" y="940" width="4" height="4" />
    <rect x="300" y="960" width="4" height="4" />
    <rect x="900" y="970" width="4" height="4" />
    <rect x="1300" y="950" width="4" height="4" />
  </g>

  
  <rect x="0" y="780" width="1536" height="8" fill="#2a4a1a" />
  <rect x="0" y="788" width="1536" height="236" fill="#1a3010" />

  
  <g fill="#2e5520">
    <rect x="0" y="788" width="64" height="8" /><rect x="128" y="788" width="64" height="8" />
    <rect x="256" y="788" width="64" height="8" /><rect x="384" y="788" width="64" height="8" />
    <rect x="512" y="788" width="64" height="8" /><rect x="640" y="788" width="64" height="8" />
    <rect x="768" y="788" width="64" height="8" /><rect x="896" y="788" width="64" height="8" />
    <rect x="1024" y="788" width="64" height="8" /><rect x="1152" y="788" width="64" height="8" />
    <rect x="1280" y="788" width="64" height="8" /><rect x="1408" y="788" width="64" height="8" />
  </g>

  
  <g filter="url(#glow)">
    
    <rect x="880" y="420" width="480" height="360" fill="#c8a060" />
    
    <rect x="888" y="428" width="464" height="344" fill="#d4b070" />
    
    <polygon points="860,420 1380,420 1240,300 1000,300" fill="#8b4513" />
    
    <polygon points="870,420 1370,420 1230,308 1010,308" fill="#a0522d" />
    
    <rect x="1020" y="240" width="40" height="80" fill="#6b3510" />
    <rect x="1016" y="236" width="48" height="12" fill="#8b4513" />
    
    <rect x="1180" y="240" width="40" height="80" fill="#6b3510" />
    <rect x="1176" y="236" width="48" height="12" fill="#8b4513" />
    
    <rect x="940" y="460" width="64" height="72" fill="#1a0a2e" />
    <rect x="948" y="468" width="24" height="28" fill="#4080c0" />
    <rect x="948" y="500" width="24" height="28" fill="#4080c0" />
    <rect x="976" y="468" width="24" height="28" fill="#4080c0" />
    <rect x="976" y="500" width="24" height="28" fill="#4080c0" />
    
    <rect x="940" y="495" width="64" height="4" fill="#8b6030" />
    <rect x="969" y="460" width="4" height="72" fill="#8b6030" />

    <rect x="1060" y="460" width="64" height="72" fill="#1a0a2e" />
    <rect x="1068" y="468" width="24" height="28" fill="#4080c0" />
    <rect x="1068" y="500" width="24" height="28" fill="#4080c0" />
    <rect x="1096" y="468" width="24" height="28" fill="#4080c0" />
    <rect x="1096" y="500" width="24" height="28" fill="#4080c0" />
    <rect x="1060" y="495" width="64" height="4" fill="#8b6030" />
    <rect x="1089" y="460" width="4" height="72" fill="#8b6030" />

    <rect x="1180" y="460" width="64" height="72" fill="#1a0a2e" />
    <rect x="1188" y="468" width="24" height="28" fill="#4080c0" />
    <rect x="1188" y="500" width="24" height="28" fill="#4080c0" />
    <rect x="1216" y="468" width="24" height="28" fill="#4080c0" />
    <rect x="1216" y="500" width="24" height="28" fill="#4080c0" />
    <rect x="1180" y="495" width="64" height="4" fill="#8b6030" />
    <rect x="1209" y="460" width="4" height="72" fill="#8b6030" />

    <rect x="1300" y="460" width="64" height="72" fill="#1a0a2e" />
    <rect x="1308" y="468" width="24" height="28" fill="#4080c0" />
    <rect x="1308" y="500" width="24" height="28" fill="#4080c0" />
    <rect x="1336" y="468" width="24" height="28" fill="#4080c0" />
    <rect x="1336" y="500" width="24" height="28" fill="#4080c0" />
    <rect x="1300" y="495" width="64" height="4" fill="#8b6030" />
    <rect x="1329" y="460" width="4" height="72" fill="#8b6030" />

    
    <rect x="940" y="580" width="64" height="72" fill="#1a0a2e" />
    <rect x="948" y="588" width="24" height="28" fill="#ffee88" />
    <rect x="948" y="620" width="24" height="28" fill="#ffee88" />
    <rect x="976" y="588" width="24" height="28" fill="#ffee88" />
    <rect x="976" y="620" width="24" height="28" fill="#ffee88" />
    <rect x="940" y="615" width="64" height="4" fill="#8b6030" />
    <rect x="969" y="580" width="4" height="72" fill="#8b6030" />

    <rect x="1300" y="580" width="64" height="72" fill="#1a0a2e" />
    <rect x="1308" y="588" width="24" height="28" fill="#ffee88" />
    <rect x="1308" y="620" width="24" height="28" fill="#ffee88" />
    <rect x="1336" y="588" width="24" height="28" fill="#ffee88" />
    <rect x="1336" y="620" width="24" height="28" fill="#ffee88" />
    <rect x="1300" y="615" width="64" height="4" fill="#8b6030" />
    <rect x="1329" y="580" width="4" height="72" fill="#8b6030" />

    
    <rect x="1090" y="620" width="80" height="160" fill="#5a3010" />
    <rect x="1098" y="628" width="28" height="60" fill="#3a1a04" />
    <rect x="1134" y="628" width="28" height="60" fill="#3a1a04" />
    
    <rect x="1090" y="604" width="80" height="20" fill="#5a3010" />
    <rect x="1098" y="596" width="64" height="12" fill="#5a3010" />
    <rect x="1106" y="588" width="48" height="12" fill="#5a3010" />
    
    <rect x="1160" y="698" width="8" height="8" fill="#d4a000" />

    
    <rect x="1070" y="776" width="120" height="8" fill="#a09080" />
    <rect x="1060" y="784" width="140" height="8" fill="#b0a090" />
  </g>

  
  <g filter="url(#glow)">
    
    <rect x="60" y="640" width="16" height="140" fill="#5a3010" />
    <rect x="20" y="560" width="96" height="32" fill="#1a6020" />
    <rect x="28" y="528" width="80" height="32" fill="#208030" />
    <rect x="36" y="496" width="64" height="32" fill="#28a040" />
    <rect x="44" y="464" width="48" height="32" fill="#30c050" />
    <rect x="52" y="440" width="32" height="24" fill="#40e060" />

    
    <rect x="200" y="660" width="16" height="120" fill="#5a3010" />
    <rect x="164" y="588" width="88" height="28" fill="#1a6020" />
    <rect x="172" y="560" width="72" height="28" fill="#208030" />
    <rect x="180" y="532" width="56" height="28" fill="#28a040" />
    <rect x="188" y="510" width="40" height="22" fill="#30c050" />
    <rect x="196" y="490" width="24" height="20" fill="#40e060" />

    
    <rect x="130" y="680" width="16" height="100" fill="#5a3010" />
    <rect x="98" y="616" width="80" height="24" fill="#1a6020" />
    <rect x="106" y="592" width="64" height="24" fill="#208030" />
    <rect x="114" y="568" width="48" height="24" fill="#28a040" />
    <rect x="122" y="548" width="32" height="20" fill="#30c050" />
  </g>

  
  <g opacity="0.6">
    <rect x="1460" y="660" width="12" height="120" fill="#5a3010" />
    <rect x="1432" y="598" width="68" height="24" fill="#1a6020" />
    <rect x="1440" y="574" width="52" height="24" fill="#208030" />
    <rect x="1448" y="550" width="36" height="24" fill="#28a040" />
  </g>

  
  <g filter="url(#glow)">
    <rect x="420" y="660" width="440" height="20" fill="#8b6030" />
    <rect x="428" y="652" width="424" height="12" fill="#a07040" />
    
    <rect x="440" y="680" width="24" height="100" fill="#7a5020" />
    <rect x="816" y="680" width="24" height="100" fill="#7a5020" />
    <rect x="464" y="760" width="376" height="16" fill="#6a4010" />
  </g>

  
  <g filter="url(#glow)">
    <rect x="560" y="600" width="160" height="60" fill="#f0e8c0" />
    <rect x="560" y="600" width="160" height="4" fill="#d4c090" />
    <rect x="560" y="604" width="4" height="56" fill="#d4c090" />
    
    <rect x="572" y="614" width="136" height="4" fill="#8b7050" />
    <rect x="572" y="624" width="136" height="4" fill="#8b7050" />
    <rect x="572" y="634" width="136" height="4" fill="#8b7050" />
    <rect x="572" y="644" width="100" height="4" fill="#8b7050" />
    
    <rect x="680" y="638" width="24" height="24" fill="#c00020" rx="2" />
    <rect x="686" y="644" width="12" height="12" fill="#ff4040" />
    
    <rect x="572" y="606" width="80" height="4" fill="#2040a0" />
    
    <rect x="716" y="598" width="4" height="16" fill="#f0f0c0" transform="rotate(-20,718,598)" />
  </g>

  
  <g filter="url(#glow)">
    
    <rect x="350" y="400" width="64" height="16" fill="#e8e8e8" />
    <rect x="342" y="416" width="80" height="24" fill="#e8e8e8" />
    <rect x="338" y="440" width="16" height="48" fill="#e8e8e8" />
    <rect x="410" y="440" width="16" height="48" fill="#e8e8e8" />
    
    <rect x="350" y="416" width="64" height="56" fill="#f5c898" />
    
    <rect x="362" y="432" width="8" height="8" fill="#1a0a00" />
    <rect x="394" y="432" width="8" height="8" fill="#1a0a00" />
    
    <rect x="370" y="452" width="24" height="4" fill="#c08060" />
    
    <rect x="334" y="472" width="96" height="180" fill="#1a2880" />
    
    <rect x="378" y="488" width="8" height="8" fill="#d4a000" />
    <rect x="378" y="508" width="8" height="8" fill="#d4a000" />
    <rect x="378" y="528" width="8" height="8" fill="#d4a000" />
    
    <rect x="354" y="472" width="56" height="180" fill="#e8dcc0" />
    <rect x="378" y="472" width="8" height="180" fill="#1a2880" />
    
    <rect x="354" y="472" width="24" height="48" fill="#1a2880" />
    <rect x="386" y="472" width="24" height="48" fill="#1a2880" />
    
    <rect x="318" y="600" width="24" height="16" fill="#f0f0f0" />
    <rect x="422" y="600" width="24" height="16" fill="#f0f0f0" />
    
    <rect x="318" y="480" width="24" height="128" fill="#1a2880" />
    <rect x="422" y="480" width="24" height="128" fill="#1a2880" />
    
    <rect x="430" y="616" width="20" height="16" fill="#f5c898" />
    
    <rect x="350" y="652" width="36" height="128" fill="#d4c8a0" />
    <rect x="378" y="652" width="36" height="128" fill="#d4c8a0" />
    
    <rect x="346" y="756" width="44" height="32" fill="#1a1008" />
    <rect x="374" y="756" width="44" height="32" fill="#1a1008" />
  </g>

  
  <g filter="url(#glow)">
    
    <rect x="808" y="340" width="8" height="40" fill="#ff6020" />
    <rect x="820" y="348" width="8" height="36" fill="#e04010" />
    <rect x="832" y="352" width="8" height="32" fill="#f0a000" />
    <rect x="796" y="352" width="8" height="32" fill="#40c040" />
    <rect x="784" y="360" width="8" height="28" fill="#c040c0" />
    
    <rect x="784" y="388" width="96" height="12" fill="#c03010" />
    <rect x="800" y="384" width="64" height="4" fill="#e04010" />
    
    <rect x="792" y="400" width="80" height="64" fill="#c07840" />
    
    <rect x="804" y="416" width="10" height="10" fill="#1a0800" />
    <rect x="850" y="416" width="10" height="10" fill="#1a0800" />
    
    <rect x="812" y="444" width="28" height="4" fill="#a06030" />
    
    <rect x="772" y="464" width="120" height="188" fill="#c05020" />
    
    <rect x="772" y="648" width="8" height="24" fill="#e08040" />
    <rect x="784" y="648" width="8" height="20" fill="#e08040" />
    <rect x="796" y="648" width="8" height="24" fill="#e08040" />
    <rect x="808" y="648" width="8" height="20" fill="#e08040" />
    <rect x="820" y="648" width="8" height="24" fill="#e08040" />
    <rect x="832" y="648" width="8" height="20" fill="#e08040" />
    <rect x="844" y="648" width="8" height="24" fill="#e08040" />
    <rect x="856" y="648" width="8" height="20" fill="#e08040" />
    <rect x="868" y="648" width="8" height="24" fill="#e08040" />
    <rect x="880" y="648" width="8" height="20" fill="#e08040" />
    
    <rect x="800" y="480" width="64" height="8" fill="#2060c0" />
    <rect x="808" y="492" width="8" height="8" fill="#f0f040" />
    <rect x="824" y="492" width="8" height="8" fill="#f040f0" />
    <rect x="840" y="492" width="8" height="8" fill="#f0f040" />
    <rect x="856" y="492" width="8" height="8" fill="#f040f0" />
    
    <rect x="748" y="472" width="28" height="120" fill="#c05020" />
    <rect x="888" y="472" width="28" height="120" fill="#c05020" />
    
    <rect x="748" y="592" width="24" height="20" fill="#c07840" />
    
    <rect x="788" y="652" width="40" height="128" fill="#804020" />
    <rect x="836" y="652" width="40" height="128" fill="#804020" />
    
    <rect x="784" y="756" width="48" height="28" fill="#5a2c10" />
    <rect x="832" y="756" width="48" height="28" fill="#5a2c10" />
  </g>

  
  <g opacity="0.85" filter="url(#glow)">
    
    <rect x="1060" y="460" width="8" height="32" fill="#f08000" />
    <rect x="1050" y="468" width="8" height="24" fill="#40c040" />
    
    <rect x="1036" y="490" width="64" height="52" fill="#c07840" />
    
    <rect x="1036" y="490" width="64" height="10" fill="#c03010" />
    
    <rect x="1046" y="506" width="8" height="8" fill="#1a0800" />
    <rect x="1080" y="506" width="8" height="8" fill="#1a0800" />
    
    <rect x="1020" y="542" width="96" height="160" fill="#a04018" />
    
    <rect x="1020" y="698" width="8" height="20" fill="#d07030" />
    <rect x="1032" y="698" width="8" height="16" fill="#d07030" />
    <rect x="1044" y="698" width="8" height="20" fill="#d07030" />
    <rect x="1056" y="698" width="8" height="16" fill="#d07030" />
    <rect x="1068" y="698" width="8" height="20" fill="#d07030" />
    <rect x="1080" y="698" width="8" height="16" fill="#d07030" />
    <rect x="1092" y="698" width="8" height="20" fill="#d07030" />
    <rect x="1104" y="698" width="8" height="16" fill="#d07030" />
    
    <rect x="1036" y="702" width="32" height="80" fill="#703010" />
    <rect x="1068" y="702" width="32" height="80" fill="#703010" />
    
    <rect x="1000" y="550" width="24" height="96" fill="#a04018" />
    <rect x="1112" y="550" width="24" height="96" fill="#a04018" />
  </g>

  
  <g opacity="0.8" filter="url(#glow)">
    
    <rect x="228" y="440" width="52" height="12" fill="#e0e0e0" />
    <rect x="220" y="452" width="68" height="20" fill="#e0e0e0" />
    
    <rect x="228" y="452" width="52" height="48" fill="#f5c898" />
    
    <rect x="238" y="466" width="6" height="6" fill="#1a0a00" />
    <rect x="264" y="466" width="6" height="6" fill="#1a0a00" />
    
    <rect x="210" y="500" width="88" height="160" fill="#1a4020" />
    <rect x="234" y="500" width="40" height="160" fill="#c8b880" />
    <rect x="254" y="500" width="8" height="160" fill="#1a4020" />
    
    <rect x="254" y="516" width="6" height="6" fill="#d4a000" />
    <rect x="254" y="532" width="6" height="6" fill="#d4a000" />
    <rect x="254" y="548" width="6" height="6" fill="#d4a000" />
    
    <rect x="210" y="508" width="20" height="108" fill="#1a4020" />
    <rect x="278" y="508" width="20" height="108" fill="#1a4020" />
    
    <rect x="224" y="660" width="28" height="100" fill="#c0b880" />
    <rect x="256" y="660" width="28" height="100" fill="#c0b880" />
    
    <rect x="220" y="740" width="36" height="24" fill="#1a1008" />
    <rect x="252" y="740" width="36" height="24" fill="#1a1008" />
  </g>

  
  <g filter="url(#glow2)">
    <rect x="740" y="608" width="16" height="48" fill="#f0f0d0" />
    <rect x="744" y="600" width="8" height="12" fill="#c8a070" />
    
    <rect x="744" y="588" width="8" height="12" fill="#ff8800" />
    <rect x="746" y="582" width="4" height="8" fill="#ffcc00" />
    <rect x="748" y="578" width="2" height="6" fill="#ffffff" />
    
    <rect x="724" y="582" width="48" height="48" fill="#ff8800" opacity="0.08" />
  </g>

  
  <g filter="url(#glow)">
    <rect x="700" y="540" width="80" height="8" fill="#ff8800" opacity="0.6" />
  </g>

  
  <g fill="#ffcc00" filter="url(#glow2)" opacity="0.9">
    <rect x="100" y="180" width="8" height="8" />
    <rect x="92" y="188" width="24" height="8" />
    <rect x="100" y="196" width="8" height="8" />
    <rect x="108" y="188" width="8" height="8" />
    <rect x="84" y="188" width="8" height="8" />
  </g>
  
  <g fill="#ffcc00" filter="url(#glow2)" opacity="0.9">
    <rect x="1420" y="200" width="8" height="8" />
    <rect x="1412" y="208" width="24" height="8" />
    <rect x="1420" y="216" width="8" height="8" />
    <rect x="1428" y="208" width="8" height="8" />
    <rect x="1404" y="208" width="8" height="8" />
  </g>

  
  <g fill="#4030a0">
    <rect x="0" y="0" width="1536" height="16" />
    <rect x="0" y="16" width="16" height="8" />
    <rect x="32" y="16" width="16" height="8" />
    <rect x="64" y="16" width="16" height="8" />
    <rect x="96" y="16" width="16" height="8" />
    <rect x="128" y="16" width="16" height="8" />
    <rect x="160" y="16" width="16" height="8" />
    <rect x="192" y="16" width="16" height="8" />
    <rect x="224" y="16" width="16" height="8" />
    <rect x="256" y="16" width="16" height="8" />
    <rect x="288" y="16" width="16" height="8" />
    <rect x="320" y="16" width="16" height="8" />
    <rect x="352" y="16" width="16" height="8" />
    <rect x="384" y="16" width="16" height="8" />
    <rect x="416" y="16" width="16" height="8" />
    <rect x="448" y="16" width="16" height="8" />
    <rect x="480" y="16" width="16" height="8" />
    <rect x="512" y="16" width="16" height="8" />
    <rect x="544" y="16" width="16" height="8" />
    <rect x="576" y="16" width="16" height="8" />
    <rect x="608" y="16" width="16" height="8" />
    <rect x="640" y="16" width="16" height="8" />
    <rect x="672" y="16" width="16" height="8" />
    <rect x="704" y="16" width="16" height="8" />
    <rect x="736" y="16" width="16" height="8" />
    <rect x="768" y="16" width="16" height="8" />
    <rect x="800" y="16" width="16" height="8" />
    <rect x="832" y="16" width="16" height="8" />
    <rect x="864" y="16" width="16" height="8" />
    <rect x="896" y="16" width="16" height="8" />
    <rect x="928" y="16" width="16" height="8" />
    <rect x="960" y="16" width="16" height="8" />
    <rect x="992" y="16" width="16" height="8" />
    <rect x="1024" y="16" width="16" height="8" />
    <rect x="1056" y="16" width="16" height="8" />
    <rect x="1088" y="16" width="16" height="8" />
    <rect x="1120" y="16" width="16" height="8" />
    <rect x="1152" y="16" width="16" height="8" />
    <rect x="1184" y="16" width="16" height="8" />
    <rect x="1216" y="16" width="16" height="8" />
    <rect x="1248" y="16" width="16" height="8" />
    <rect x="1280" y="16" width="16" height="8" />
    <rect x="1312" y="16" width="16" height="8" />
    <rect x="1344" y="16" width="16" height="8" />
    <rect x="1376" y="16" width="16" height="8" />
    <rect x="1408" y="16" width="16" height="8" />
    <rect x="1440" y="16" width="16" height="8" />
    <rect x="1472" y="16" width="16" height="8" />
    <rect x="1504" y="16" width="16" height="8" />
  </g>
  
  <rect x="0" y="0" width="1536" height="16" fill="#6050ff" opacity="0.4" />

  
  <g fill="#4030a0">
    <rect x="0" y="1008" width="1536" height="16" />
  </g>
  <rect x="0" y="1008" width="1536" height="16" fill="#6050ff" opacity="0.4" />

  
  <rect x="60" y="60" width="780" height="280" fill="#0a0520" opacity="0.85" rx="4" />
  <rect x="64" y="64" width="772" height="272" fill="#120840" opacity="0.5" rx="2" />
  
  <rect x="60" y="60" width="780" height="8" fill="#6050ff" opacity="0.8" />
  <rect x="60" y="60" width="8" height="280" fill="#6050ff" opacity="0.8" />
  <rect x="60" y="332" width="780" height="8" fill="#6050ff" opacity="0.8" />
  <rect x="832" y="60" width="8" height="280" fill="#6050ff" opacity="0.8" />

  
  <text x="96" y="120" font-family="monospace, 'Courier New'" font-size="28" font-weight="bold" fill="#a090ff" letter-spacing="12" filter="url(#glow)">THE</text>

  
  <text x="88" y="200" font-family="monospace, 'Courier New'" font-size="72" font-weight="bold" fill="#ffee44" letter-spacing="4" filter="url(#glow2)">TREATY OF</text>

  
  <text x="88" y="290" font-family="monospace, 'Courier New'" font-size="72" font-weight="bold" fill="#ffee44" letter-spacing="4" filter="url(#glow2)">WATERTOWN</text>

  
  <text x="96" y="348" font-family="monospace, 'Courier New'" font-size="22" font-weight="bold" fill="#80eecc" letter-spacing="2" filter="url(#glow)">JULY 19, 1776  ★  WATERTOWN, MASSACHUSETTS BAY</text>

  
  <g fill="#ff4488" opacity="0.9" filter="url(#glow)">
    <rect x="96" y="364" width="8" height="8" />
    <rect x="112" y="364" width="8" height="8" />
    <rect x="128" y="364" width="8" height="8" />
    <rect x="144" y="364" width="8" height="8" />
    <rect x="160" y="364" width="8" height="8" />
    <rect x="176" y="364" width="8" height="8" />
    <rect x="192" y="364" width="8" height="8" />
    <rect x="208" y="364" width="8" height="8" />
    <rect x="224" y="364" width="8" height="8" />
    <rect x="240" y="364" width="8" height="8" />
    <rect x="256" y="364" width="8" height="8" />
    <rect x="272" y="364" width="8" height="8" />
    <rect x="288" y="364" width="8" height="8" />
    <rect x="304" y="364" width="8" height="8" />
    <rect x="320" y="364" width="8" height="8" />
    <rect x="336" y="364" width="8" height="8" />
    <rect x="352" y="364" width="8" height="8" />
    <rect x="368" y="364" width="8" height="8" />
    <rect x="384" y="364" width="8" height="8" />
    <rect x="400" y="364" width="8" height="8" />
  </g>

  
  <rect x="60" y="920" width="320" height="48" fill="#201040" opacity="0.9" rx="4" />
  <rect x="60" y="920" width="4" height="48" fill="#ff4488" />
  <text x="76" y="950" font-family="monospace, 'Courier New'" font-size="20" fill="#c0b0ff" filter="url(#glow)">★ FIRST US TREATY (1776)</text>

  <rect x="400" y="920" width="340" height="48" fill="#201040" opacity="0.9" rx="4" />
  <rect x="400" y="920" width="4" height="48" fill="#ffcc00" />
  <text x="416" y="950" font-family="monospace, 'Courier New'" font-size="20" fill="#c0b0ff" filter="url(#glow)">★ MI'KMAQ · MALISEET</text>

  <rect x="760" y="920" width="340" height="48" fill="#201040" opacity="0.9" rx="4" />
  <rect x="760" y="920" width="4" height="48" fill="#40e060" />
  <text x="776" y="950" font-family="monospace, 'Courier New'" font-size="20" fill="#c0b0ff" filter="url(#glow)">★ ALLIANCE &amp; FRIENDSHIP</text>

  
  <rect x="0" y="0" width="1536" height="1024" fill="url(#scanlines)" opacity="0.5" />

  
  <radialGradient id="vignette" cx="50%" cy="50%" r="70%">
    <stop offset="60%" stop-color="transparent" />
    <stop offset="100%" stop-color="rgba(0,0,0,0.55)" />
  </radialGradient>
  <rect x="0" y="0" width="1536" height="1024" fill="url(#vignette)" />
</svg>