<svg xmlns="http://www.w3.org/2000/svg" viewBox="0 0 1536 1024" role="img" width="1536" height="1024">
  <title>The Mecklenburg Declaration of Independence – Retro Pixel Art Banner</title>
  <defs>
    <radialGradient id="crt" cx="50%" cy="50%" r="70%">
      <stop offset="0%" stop-color="#1a0a2e" />
      <stop offset="100%" stop-color="#0a0010" />
    </radialGradient>
    <filter id="glow">
      <feGaussianBlur stdDeviation="3" result="blur" />
      <feMerge><feMergeNode in="blur" /><feMergeNode in="SourceGraphic" /></feMerge>
    </filter>
    <filter id="scanline">
      <feColorMatrix type="saturate" values="1.2" />
    </filter>
  </defs>

  
  <rect width="1536" height="1024" fill="url(#crt)" />

  
  <rect width="1536" height="1024" fill="none" stroke="#000" stroke-width="0" opacity="0.3" />
  
  <g opacity="0.15">
    <rect y="0" width="1536" height="2" fill="#000" />
    <rect y="4" width="1536" height="2" fill="#000" />
    <rect y="8" width="1536" height="2" fill="#000" />
    <rect y="12" width="1536" height="2" fill="#000" />
    <rect y="16" width="1536" height="2" fill="#000" />
    <rect y="20" width="1536" height="2" fill="#000" />
    <rect y="24" width="1536" height="2" fill="#000" />
    <rect y="28" width="1536" height="2" fill="#000" />
    <rect y="32" width="1536" height="2" fill="#000" />
    <rect y="36" width="1536" height="2" fill="#000" />
    <rect y="40" width="1536" height="2" fill="#000" />
    <rect y="44" width="1536" height="2" fill="#000" />
    <rect y="48" width="1536" height="2" fill="#000" />
    <rect y="52" width="1536" height="2" fill="#000" />
    <rect y="56" width="1536" height="2" fill="#000" />
    <rect y="60" width="1536" height="2" fill="#000" />
    <rect y="64" width="1536" height="2" fill="#000" />
    <rect y="68" width="1536" height="2" fill="#000" />
    <rect y="72" width="1536" height="2" fill="#000" />
    <rect y="76" width="1536" height="2" fill="#000" />
    <rect y="80" width="1536" height="2" fill="#000" />
    <rect y="84" width="1536" height="2" fill="#000" />
    <rect y="88" width="1536" height="2" fill="#000" />
    <rect y="92" width="1536" height="2" fill="#000" />
    <rect y="96" width="1536" height="2" fill="#000" />
    <rect y="100" width="1536" height="2" fill="#000" />
    <rect y="104" width="1536" height="2" fill="#000" />
    <rect y="108" width="1536" height="2" fill="#000" />
    <rect y="112" width="1536" height="2" fill="#000" />
    <rect y="116" width="1536" height="2" fill="#000" />
    <rect y="120" width="1536" height="2" fill="#000" />
    <rect y="124" width="1536" height="2" fill="#000" />
    <rect y="128" width="1536" height="2" fill="#000" />
    <rect y="132" width="1536" height="2" fill="#000" />
    <rect y="136" width="1536" height="2" fill="#000" />
    <rect y="140" width="1536" height="2" fill="#000" />
    <rect y="144" width="1536" height="2" fill="#000" />
    <rect y="148" width="1536" height="2" fill="#000" />
    <rect y="152" width="1536" height="2" fill="#000" />
    <rect y="156" width="1536" height="2" fill="#000" />
    <rect y="160" width="1536" height="2" fill="#000" />
    <rect y="164" width="1536" height="2" fill="#000" />
    <rect y="168" width="1536" height="2" fill="#000" />
    <rect y="172" width="1536" height="2" fill="#000" />
    <rect y="176" width="1536" height="2" fill="#000" />
    <rect y="180" width="1536" height="2" fill="#000" />
    <rect y="184" width="1536" height="2" fill="#000" />
    <rect y="188" width="1536" height="2" fill="#000" />
    <rect y="192" width="1536" height="2" fill="#000" />
    <rect y="196" width="1536" height="2" fill="#000" />
    <rect y="200" width="1536" height="2" fill="#000" />
    <rect y="204" width="1536" height="2" fill="#000" />
    <rect y="208" width="1536" height="2" fill="#000" />
    <rect y="212" width="1536" height="2" fill="#000" />
    <rect y="216" width="1536" height="2" fill="#000" />
    <rect y="220" width="1536" height="2" fill="#000" />
    <rect y="224" width="1536" height="2" fill="#000" />
    <rect y="228" width="1536" height="2" fill="#000" />
    <rect y="232" width="1536" height="2" fill="#000" />
    <rect y="236" width="1536" height="2" fill="#000" />
    <rect y="240" width="1536" height="2" fill="#000" />
    <rect y="244" width="1536" height="2" fill="#000" />
    <rect y="248" width="1536" height="2" fill="#000" />
    <rect y="252" width="1536" height="2" fill="#000" />
    <rect y="256" width="1536" height="2" fill="#000" />
    <rect y="260" width="1536" height="2" fill="#000" />
    <rect y="264" width="1536" height="2" fill="#000" />
    <rect y="268" width="1536" height="2" fill="#000" />
    <rect y="272" width="1536" height="2" fill="#000" />
    <rect y="276" width="1536" height="2" fill="#000" />
    <rect y="280" width="1536" height="2" fill="#000" />
    <rect y="284" width="1536" height="2" fill="#000" />
    <rect y="288" width="1536" height="2" fill="#000" />
    <rect y="292" width="1536" height="2" fill="#000" />
    <rect y="296" width="1536" height="2" fill="#000" />
    <rect y="300" width="1536" height="2" fill="#000" />
    <rect y="304" width="1536" height="2" fill="#000" />
    <rect y="308" width="1536" height="2" fill="#000" />
    <rect y="312" width="1536" height="2" fill="#000" />
    <rect y="316" width="1536" height="2" fill="#000" />
    <rect y="320" width="1536" height="2" fill="#000" />
    <rect y="324" width="1536" height="2" fill="#000" />
    <rect y="328" width="1536" height="2" fill="#000" />
    <rect y="332" width="1536" height="2" fill="#000" />
    <rect y="336" width="1536" height="2" fill="#000" />
    <rect y="340" width="1536" height="2" fill="#000" />
    <rect y="344" width="1536" height="2" fill="#000" />
    <rect y="348" width="1536" height="2" fill="#000" />
    <rect y="352" width="1536" height="2" fill="#000" />
    <rect y="356" width="1536" height="2" fill="#000" />
    <rect y="360" width="1536" height="2" fill="#000" />
    <rect y="364" width="1536" height="2" fill="#000" />
    <rect y="368" width="1536" height="2" fill="#000" />
    <rect y="372" width="1536" height="2" fill="#000" />
    <rect y="376" width="1536" height="2" fill="#000" />
    <rect y="380" width="1536" height="2" fill="#000" />
    <rect y="384" width="1536" height="2" fill="#000" />
    <rect y="388" width="1536" height="2" fill="#000" />
    <rect y="392" width="1536" height="2" fill="#000" />
    <rect y="396" width="1536" height="2" fill="#000" />
    <rect y="400" width="1536" height="2" fill="#000" />
    <rect y="404" width="1536" height="2" fill="#000" />
    <rect y="408" width="1536" height="2" fill="#000" />
    <rect y="412" width="1536" height="2" fill="#000" />
    <rect y="416" width="1536" height="2" fill="#000" />
    <rect y="420" width="1536" height="2" fill="#000" />
    <rect y="424" width="1536" height="2" fill="#000" />
    <rect y="428" width="1536" height="2" fill="#000" />
    <rect y="432" width="1536" height="2" fill="#000" />
    <rect y="436" width="1536" height="2" fill="#000" />
    <rect y="440" width="1536" height="2" fill="#000" />
    <rect y="444" width="1536" height="2" fill="#000" />
    <rect y="448" width="1536" height="2" fill="#000" />
    <rect y="452" width="1536" height="2" fill="#000" />
    <rect y="456" width="1536" height="2" fill="#000" />
    <rect y="460" width="1536" height="2" fill="#000" />
    <rect y="464" width="1536" height="2" fill="#000" />
    <rect y="468" width="1536" height="2" fill="#000" />
    <rect y="472" width="1536" height="2" fill="#000" />
    <rect y="476" width="1536" height="2" fill="#000" />
    <rect y="480" width="1536" height="2" fill="#000" />
    <rect y="484" width="1536" height="2" fill="#000" />
    <rect y="488" width="1536" height="2" fill="#000" />
    <rect y="492" width="1536" height="2" fill="#000" />
    <rect y="496" width="1536" height="2" fill="#000" />
    <rect y="500" width="1536" height="2" fill="#000" />
    <rect y="504" width="1536" height="2" fill="#000" />
    <rect y="508" width="1536" height="2" fill="#000" />
    <rect y="512" width="1536" height="2" fill="#000" />
    <rect y="516" width="1536" height="2" fill="#000" />
    <rect y="520" width="1536" height="2" fill="#000" />
    <rect y="524" width="1536" height="2" fill="#000" />
    <rect y="528" width="1536" height="2" fill="#000" />
    <rect y="532" width="1536" height="2" fill="#000" />
    <rect y="536" width="1536" height="2" fill="#000" />
    <rect y="540" width="1536" height="2" fill="#000" />
    <rect y="544" width="1536" height="2" fill="#000" />
    <rect y="548" width="1536" height="2" fill="#000" />
    <rect y="552" width="1536" height="2" fill="#000" />
    <rect y="556" width="1536" height="2" fill="#000" />
    <rect y="560" width="1536" height="2" fill="#000" />
    <rect y="564" width="1536" height="2" fill="#000" />
    <rect y="568" width="1536" height="2" fill="#000" />
    <rect y="572" width="1536" height="2" fill="#000" />
    <rect y="576" width="1536" height="2" fill="#000" />
    <rect y="580" width="1536" height="2" fill="#000" />
    <rect y="584" width="1536" height="2" fill="#000" />
    <rect y="588" width="1536" height="2" fill="#000" />
    <rect y="592" width="1536" height="2" fill="#000" />
    <rect y="596" width="1536" height="2" fill="#000" />
    <rect y="600" width="1536" height="2" fill="#000" />
    <rect y="604" width="1536" height="2" fill="#000" />
    <rect y="608" width="1536" height="2" fill="#000" />
    <rect y="612" width="1536" height="2" fill="#000" />
    <rect y="616" width="1536" height="2" fill="#000" />
    <rect y="620" width="1536" height="2" fill="#000" />
    <rect y="624" width="1536" height="2" fill="#000" />
    <rect y="628" width="1536" height="2" fill="#000" />
    <rect y="632" width="1536" height="2" fill="#000" />
    <rect y="636" width="1536" height="2" fill="#000" />
    <rect y="640" width="1536" height="2" fill="#000" />
    <rect y="644" width="1536" height="2" fill="#000" />
    <rect y="648" width="1536" height="2" fill="#000" />
    <rect y="652" width="1536" height="2" fill="#000" />
    <rect y="656" width="1536" height="2" fill="#000" />
    <rect y="660" width="1536" height="2" fill="#000" />
    <rect y="664" width="1536" height="2" fill="#000" />
    <rect y="668" width="1536" height="2" fill="#000" />
    <rect y="672" width="1536" height="2" fill="#000" />
    <rect y="676" width="1536" height="2" fill="#000" />
    <rect y="680" width="1536" height="2" fill="#000" />
    <rect y="684" width="1536" height="2" fill="#000" />
    <rect y="688" width="1536" height="2" fill="#000" />
    <rect y="692" width="1536" height="2" fill="#000" />
    <rect y="696" width="1536" height="2" fill="#000" />
    <rect y="700" width="1536" height="2" fill="#000" />
    <rect y="704" width="1536" height="2" fill="#000" />
    <rect y="708" width="1536" height="2" fill="#000" />
    <rect y="712" width="1536" height="2" fill="#000" />
    <rect y="716" width="1536" height="2" fill="#000" />
    <rect y="720" width="1536" height="2" fill="#000" />
    <rect y="724" width="1536" height="2" fill="#000" />
    <rect y="728" width="1536" height="2" fill="#000" />
    <rect y="732" width="1536" height="2" fill="#000" />
    <rect y="736" width="1536" height="2" fill="#000" />
    <rect y="740" width="1536" height="2" fill="#000" />
    <rect y="744" width="1536" height="2" fill="#000" />
    <rect y="748" width="1536" height="2" fill="#000" />
    <rect y="752" width="1536" height="2" fill="#000" />
    <rect y="756" width="1536" height="2" fill="#000" />
    <rect y="760" width="1536" height="2" fill="#000" />
    <rect y="764" width="1536" height="2" fill="#000" />
    <rect y="768" width="1536" height="2" fill="#000" />
    <rect y="772" width="1536" height="2" fill="#000" />
    <rect y="776" width="1536" height="2" fill="#000" />
    <rect y="780" width="1536" height="2" fill="#000" />
    <rect y="784" width="1536" height="2" fill="#000" />
    <rect y="788" width="1536" height="2" fill="#000" />
    <rect y="792" width="1536" height="2" fill="#000" />
    <rect y="796" width="1536" height="2" fill="#000" />
    <rect y="800" width="1536" height="2" fill="#000" />
    <rect y="804" width="1536" height="2" fill="#000" />
    <rect y="808" width="1536" height="2" fill="#000" />
    <rect y="812" width="1536" height="2" fill="#000" />
    <rect y="816" width="1536" height="2" fill="#000" />
    <rect y="820" width="1536" height="2" fill="#000" />
    <rect y="824" width="1536" height="2" fill="#000" />
    <rect y="828" width="1536" height="2" fill="#000" />
    <rect y="832" width="1536" height="2" fill="#000" />
    <rect y="836" width="1536" height="2" fill="#000" />
    <rect y="840" width="1536" height="2" fill="#000" />
    <rect y="844" width="1536" height="2" fill="#000" />
    <rect y="848" width="1536" height="2" fill="#000" />
    <rect y="852" width="1536" height="2" fill="#000" />
    <rect y="856" width="1536" height="2" fill="#000" />
    <rect y="860" width="1536" height="2" fill="#000" />
    <rect y="864" width="1536" height="2" fill="#000" />
    <rect y="868" width="1536" height="2" fill="#000" />
    <rect y="872" width="1536" height="2" fill="#000" />
    <rect y="876" width="1536" height="2" fill="#000" />
    <rect y="880" width="1536" height="2" fill="#000" />
    <rect y="884" width="1536" height="2" fill="#000" />
    <rect y="888" width="1536" height="2" fill="#000" />
    <rect y="892" width="1536" height="2" fill="#000" />
    <rect y="896" width="1536" height="2" fill="#000" />
    <rect y="900" width="1536" height="2" fill="#000" />
    <rect y="904" width="1536" height="2" fill="#000" />
    <rect y="908" width="1536" height="2" fill="#000" />
    <rect y="912" width="1536" height="2" fill="#000" />
    <rect y="916" width="1536" height="2" fill="#000" />
    <rect y="920" width="1536" height="2" fill="#000" />
    <rect y="924" width="1536" height="2" fill="#000" />
    <rect y="928" width="1536" height="2" fill="#000" />
    <rect y="932" width="1536" height="2" fill="#000" />
    <rect y="936" width="1536" height="2" fill="#000" />
    <rect y="940" width="1536" height="2" fill="#000" />
    <rect y="944" width="1536" height="2" fill="#000" />
    <rect y="948" width="1536" height="2" fill="#000" />
    <rect y="952" width="1536" height="2" fill="#000" />
    <rect y="956" width="1536" height="2" fill="#000" />
    <rect y="960" width="1536" height="2" fill="#000" />
    <rect y="964" width="1536" height="2" fill="#000" />
    <rect y="968" width="1536" height="2" fill="#000" />
    <rect y="972" width="1536" height="2" fill="#000" />
    <rect y="976" width="1536" height="2" fill="#000" />
    <rect y="980" width="1536" height="2" fill="#000" />
    <rect y="984" width="1536" height="2" fill="#000" />
    <rect y="988" width="1536" height="2" fill="#000" />
    <rect y="992" width="1536" height="2" fill="#000" />
    <rect y="996" width="1536" height="2" fill="#000" />
    <rect y="1000" width="1536" height="2" fill="#000" />
    <rect y="1004" width="1536" height="2" fill="#000" />
    <rect y="1008" width="1536" height="2" fill="#000" />
    <rect y="1012" width="1536" height="2" fill="#000" />
    <rect y="1016" width="1536" height="2" fill="#000" />
    <rect y="1020" width="1536" height="2" fill="#000" />
  </g>

  
  <g fill="#6633aa" opacity="0.5">
    <rect x="50" y="40" width="4" height="4" />
    <rect x="200" y="80" width="4" height="4" />
    <rect x="340" y="30" width="4" height="4" />
    <rect x="500" y="60" width="4" height="4" />
    <rect x="680" y="20" width="4" height="4" />
    <rect x="820" y="70" width="4" height="4" />
    <rect x="1000" y="35" width="4" height="4" />
    <rect x="1150" y="55" width="4" height="4" />
    <rect x="1300" y="25" width="4" height="4" />
    <rect x="1450" y="65" width="4" height="4" />
    <rect x="100" y="950" width="4" height="4" />
    <rect x="300" y="980" width="4" height="4" />
    <rect x="600" y="990" width="4" height="4" />
    <rect x="900" y="960" width="4" height="4" />
    <rect x="1200" y="975" width="4" height="4" />
    <rect x="1400" y="950" width="4" height="4" />
  </g>

  
  
  <rect x="100" y="140" width="520" height="700" rx="0" fill="#d4a84b" filter="url(#glow)" />
  
  <rect x="100" y="140" width="520" height="700" fill="none" stroke="#f0c060" stroke-width="8" />
  
  <rect x="100" y="120" width="520" height="30" fill="#b8893a" />
  <rect x="100" y="110" width="520" height="12" fill="#8b6420" />
  <rect x="108" y="110" width="504" height="10" fill="#c89a40" />
  
  <rect x="100" y="830" width="520" height="28" fill="#b8893a" />
  <rect x="100" y="858" width="520" height="12" fill="#8b6420" />
  <rect x="108" y="858" width="504" height="10" fill="#c89a40" />
  
  <rect x="115" y="155" width="490" height="660" fill="#c89830" opacity="0.3" />
  
  <g fill="#4a2800" opacity="0.7">
    <rect x="140" y="200" width="440" height="8" rx="2" />
    <rect x="140" y="226" width="380" height="8" rx="2" />
    <rect x="140" y="252" width="420" height="8" rx="2" />
    <rect x="140" y="278" width="360" height="8" rx="2" />
    <rect x="140" y="304" width="440" height="8" rx="2" />
    <rect x="140" y="330" width="300" height="8" rx="2" />
    <rect x="140" y="380" width="440" height="8" rx="2" />
    <rect x="140" y="406" width="400" height="8" rx="2" />
    <rect x="140" y="432" width="440" height="8" rx="2" />
    <rect x="140" y="458" width="340" height="8" rx="2" />
    <rect x="140" y="484" width="440" height="8" rx="2" />
    <rect x="140" y="510" width="380" height="8" rx="2" />
    <rect x="140" y="560" width="440" height="8" rx="2" />
    <rect x="140" y="586" width="420" height="8" rx="2" />
    <rect x="140" y="612" width="300" height="8" rx="2" />
    <rect x="140" y="638" width="440" height="8" rx="2" />
    <rect x="140" y="664" width="360" height="8" rx="2" />
    <rect x="140" y="690" width="440" height="8" rx="2" />
    <rect x="140" y="716" width="400" height="8" rx="2" />
    <rect x="140" y="742" width="440" height="8" rx="2" />
    <rect x="140" y="768" width="280" height="8" rx="2" />
  </g>
  
  <text x="360" y="190" font-family="monospace" font-size="28" font-weight="bold" fill="#8b2200" text-anchor="middle" filter="url(#glow)">MAY 20, 1776</text>
  
  <rect x="280" y="790" width="80" height="80" rx="40" fill="#cc2200" />
  <rect x="288" y="798" width="64" height="64" rx="32" fill="#aa1a00" />
  <rect x="310" y="820" width="20" height="20" fill="#ff6644" />
  <rect x="314" y="824" width="12" height="12" fill="#ffaa88" />

  
  
  <rect x="590" y="220" width="8" height="180" fill="#f0e080" transform="rotate(-35 594 310)" />
  
  <g fill="#e0d060" transform="rotate(-35 594 310)">
    <rect x="574" y="220" width="20" height="6" />
    <rect x="570" y="232" width="24" height="6" />
    <rect x="566" y="244" width="28" height="6" />
    <rect x="562" y="256" width="32" height="6" />
    <rect x="558" y="268" width="36" height="6" />
    <rect x="562" y="280" width="32" height="6" />
    <rect x="566" y="292" width="28" height="6" />
    <rect x="570" y="304" width="24" height="6" />
    <rect x="574" y="316" width="20" height="6" />
  </g>
  
  <g fill="#ffffc0" transform="rotate(-35 594 310)">
    <rect x="594" y="220" width="20" height="6" />
    <rect x="594" y="232" width="24" height="6" />
    <rect x="594" y="244" width="28" height="6" />
    <rect x="594" y="256" width="32" height="6" />
    <rect x="594" y="268" width="36" height="6" />
    <rect x="594" y="280" width="32" height="6" />
    <rect x="594" y="292" width="28" height="6" />
    <rect x="594" y="304" width="24" height="6" />
    <rect x="594" y="316" width="20" height="6" />
  </g>
  
  <polygon points="648,680 660,680 654,720" fill="#2a1800" />

  
  <g transform="translate(900, 120)">
    
    <rect x="0" y="0" width="16" height="780" fill="#888888" />
    <rect x="4" y="0" width="8" height="780" fill="#aaaaaa" />
    
    <rect x="-8" y="-20" width="32" height="20" fill="#ffdd00" />
    
    <rect x="16" y="0" width="500" height="60" fill="#cc2200" />
    <rect x="16" y="60" width="500" height="60" fill="#eeeeee" />
    <rect x="16" y="120" width="500" height="60" fill="#cc2200" />
    <rect x="16" y="180" width="500" height="60" fill="#eeeeee" />
    <rect x="16" y="240" width="500" height="60" fill="#cc2200" />
    <rect x="16" y="300" width="500" height="60" fill="#eeeeee" />
    <rect x="16" y="360" width="500" height="60" fill="#cc2200" />
    
    <rect x="16" y="0" width="200" height="280" fill="#002288" />
    
    <g fill="#ffffff">
      
      <rect x="36" y="20" width="12" height="12" />
      <rect x="76" y="20" width="12" height="12" />
      <rect x="116" y="20" width="12" height="12" />
      <rect x="156" y="20" width="12" height="12" />
      
      <rect x="56" y="50" width="12" height="12" />
      <rect x="96" y="50" width="12" height="12" />
      <rect x="136" y="50" width="12" height="12" />
      <rect x="176" y="50" width="12" height="12" />
      
      <rect x="36" y="80" width="12" height="12" />
      <rect x="76" y="80" width="12" height="12" />
      <rect x="116" y="80" width="12" height="12" />
      <rect x="156" y="80" width="12" height="12" />
      
      <rect x="56" y="110" width="12" height="12" />
      <rect x="96" y="110" width="12" height="12" />
      <rect x="136" y="110" width="12" height="12" />
      <rect x="176" y="110" width="12" height="12" />
      
      <rect x="36" y="140" width="12" height="12" />
      <rect x="76" y="140" width="12" height="12" />
      <rect x="116" y="140" width="12" height="12" />
      <rect x="156" y="140" width="12" height="12" />
      
      <rect x="56" y="170" width="12" height="12" />
      <rect x="96" y="170" width="12" height="12" />
      <rect x="136" y="170" width="12" height="12" />
      <rect x="176" y="170" width="12" height="12" />
      
      <rect x="36" y="200" width="12" height="12" />
      <rect x="76" y="200" width="12" height="12" />
      <rect x="116" y="200" width="12" height="12" />
      <rect x="156" y="200" width="12" height="12" />
      
      <rect x="56" y="230" width="12" height="12" />
      <rect x="96" y="230" width="12" height="12" />
      <rect x="136" y="230" width="12" height="12" />
      <rect x="176" y="230" width="12" height="12" />
    </g>
    
    <rect x="16" y="420" width="500" height="60" fill="#eeeeee" />
    <rect x="16" y="480" width="500" height="60" fill="#cc2200" />
    <rect x="16" y="540" width="500" height="60" fill="#eeeeee" />
    <rect x="16" y="600" width="500" height="60" fill="#cc2200" />
    <rect x="16" y="660" width="500" height="60" fill="#eeeeee" />
    <rect x="16" y="720" width="500" height="60" fill="#cc2200" />
  </g>

  
  <rect x="0" y="900" width="1536" height="124" fill="#1a3300" />
  <rect x="0" y="900" width="1536" height="16" fill="#2a5500" />
  
  <g fill="#33aa00">
    <rect x="50" y="888" width="16" height="16" />
    <rect x="58" y="880" width="8" height="8" />
    <rect x="150" y="888" width="16" height="16" />
    <rect x="158" y="880" width="8" height="8" />
    <rect x="280" y="888" width="16" height="16" />
    <rect x="450" y="888" width="16" height="16" />
    <rect x="600" y="888" width="16" height="16" />
    <rect x="750" y="888" width="16" height="16" />
    <rect x="900" y="888" width="16" height="16" />
    <rect x="1050" y="888" width="16" height="16" />
    <rect x="1200" y="888" width="16" height="16" />
    <rect x="1350" y="888" width="16" height="16" />
    <rect x="1450" y="888" width="16" height="16" />
  </g>

  
  <g transform="translate(830, 580)" filter="url(#glow)">
    
    <rect x="20" y="0" width="40" height="40" fill="#f5c89a" />
    
    <rect x="10" y="-12" width="60" height="8" fill="#2a2200" />
    <rect x="20" y="-36" width="40" height="26" fill="#2a2200" />
    
    <rect x="10" y="40" width="60" height="80" fill="#002288" />
    
    <rect x="10" y="40" width="20" height="40" fill="#cc2200" />
    <rect x="50" y="40" width="20" height="40" fill="#cc2200" />
    
    <rect x="14" y="120" width="28" height="60" fill="#cc9900" />
    <rect x="38" y="120" width="28" height="60" fill="#cc9900" />
    
    <rect x="10" y="176" width="32" height="20" fill="#1a0a00" />
    <rect x="38" y="176" width="32" height="20" fill="#1a0a00" />
    
    <rect x="-16" y="44" width="24" height="64" fill="#002288" />
    <rect x="72" y="44" width="24" height="64" fill="#002288" />
    
    <rect x="-16" y="104" width="20" height="16" fill="#f5c89a" />
    <rect x="76" y="104" width="20" height="16" fill="#f5c89a" />
    
    <rect x="76" y="90" width="24" height="32" fill="#d4a84b" />
    <rect x="80" y="96" width="16" height="4" fill="#8b6420" />
    <rect x="80" y="106" width="16" height="4" fill="#8b6420" />
    <rect x="80" y="116" width="16" height="4" fill="#8b6420" />
  </g>

  
  
  <rect x="0" y="0" width="1536" height="20" fill="#ff4400" />
  <rect x="0" y="20" width="1536" height="8" fill="#ffaa00" />
  <rect x="0" y="28" width="1536" height="4" fill="#ffdd00" />
  
  <rect x="0" y="1000" width="1536" height="24" fill="#ff4400" />
  <rect x="0" y="990" width="1536" height="10" fill="#ffaa00" />
  <rect x="0" y="983" width="1536" height="8" fill="#ffdd00" />
  
  <rect x="0" y="0" width="20" height="1024" fill="#ff4400" />
  <rect x="20" y="0" width="8" height="1024" fill="#ffaa00" />
  <rect x="28" y="0" width="4" height="1024" fill="#ffdd00" />
  
  <rect x="1516" y="0" width="20" height="1024" fill="#ff4400" />
  <rect x="1508" y="0" width="8" height="1024" fill="#ffaa00" />
  <rect x="1504" y="0" width="4" height="1024" fill="#ffdd00" />

  
  
  <text x="768" y="960" font-family="'Courier New', Courier, monospace" font-size="38" font-weight="bold" fill="#000000" text-anchor="middle" opacity="0.8">MECKLENBURG COUNTY, NC  |  MAY 20, 1776</text>
  
  <text x="766" y="957" font-family="'Courier New', Courier, monospace" font-size="38" font-weight="bold" fill="#ffdd00" text-anchor="middle" filter="url(#glow)">MECKLENBURG COUNTY, NC  |  MAY 20, 1776</text>

  
  <rect x="40" y="38" width="1456" height="80" fill="#000000" opacity="0.7" />
  <rect x="40" y="38" width="1456" height="80" fill="none" stroke="#ff4400" stroke-width="4" />

  
  <text x="770" y="100" font-family="'Courier New', Courier, monospace" font-size="52" font-weight="bold" fill="#440000" text-anchor="middle">THE MECKLENBURG DECLARATION OF INDEPENDENCE</text>
  
  <text x="768" y="97" font-family="'Courier New', Courier, monospace" font-size="52" font-weight="bold" fill="#ff6600" text-anchor="middle" filter="url(#glow)">THE MECKLENBURG DECLARATION OF INDEPENDENCE</text>
</svg>