<svg xmlns="http://www.w3.org/2000/svg" viewBox="0 0 1536 1024" role="img" width="1536" height="1024">
  <title>Timeline of 1776 — Retro Pixel Art Banner</title>
  <defs>
    <radialGradient id="crt" cx="50%" cy="50%" r="70%">
      <stop offset="0%" stop-color="#1a0a2e" />
      <stop offset="100%" stop-color="#000008" />
    </radialGradient>
    <filter id="glow">
      <feGaussianBlur stdDeviation="3" result="blur" />
      <feMerge><feMergeNode in="blur" /><feMergeNode in="SourceGraphic" /></feMerge>
    </filter>
    <filter id="scanline" x="0" y="0" width="100%" height="100%">
      <feFlood flood-color="#000" flood-opacity="0.15" result="flood" />
      <feComposite in="flood" in2="SourceGraphic" operator="over" />
    </filter>
  </defs>

  
  <rect width="1536" height="1024" fill="url(#crt)" />

  
  <rect width="1536" height="2" y="0" fill="#000" opacity="0.3" />
  <rect width="1536" height="1" y="4" fill="#000" opacity="0.2" />
  <rect width="1536" height="1" y="8" fill="#000" opacity="0.2" />
  <rect width="1536" height="1" y="12" fill="#000" opacity="0.2" />
  <rect width="1536" height="1" y="16" fill="#000" opacity="0.2" />
  <rect width="1536" height="1" y="20" fill="#000" opacity="0.2" />
  

  
  <rect x="50" y="30" width="4" height="4" fill="#fff" opacity="0.7" />
  <rect x="150" y="80" width="4" height="4" fill="#fff" opacity="0.5" />
  <rect x="300" y="20" width="4" height="4" fill="#fff" opacity="0.8" />
  <rect x="500" y="60" width="4" height="4" fill="#fff" opacity="0.6" />
  <rect x="700" y="15" width="4" height="4" fill="#fff" opacity="0.7" />
  <rect x="900" y="50" width="4" height="4" fill="#fff" opacity="0.5" />
  <rect x="1100" y="25" width="4" height="4" fill="#fff" opacity="0.8" />
  <rect x="1300" y="70" width="4" height="4" fill="#fff" opacity="0.6" />
  <rect x="1450" y="35" width="4" height="4" fill="#fff" opacity="0.7" />
  <rect x="80" y="950" width="4" height="4" fill="#fff" opacity="0.5" />
  <rect x="250" y="990" width="4" height="4" fill="#fff" opacity="0.7" />
  <rect x="600" y="970" width="4" height="4" fill="#fff" opacity="0.6" />
  <rect x="1200" y="960" width="4" height="4" fill="#fff" opacity="0.8" />
  <rect x="1480" y="980" width="4" height="4" fill="#fff" opacity="0.5" />

  
  <rect x="60" y="512" width="1416" height="8" fill="#00ff88" filter="url(#glow)" />
  
  
  <rect x="180" y="496" width="24" height="24" fill="#ff4466" filter="url(#glow)" />
  <rect x="184" y="500" width="16" height="16" fill="#ff88aa" />
  
  <rect x="420" y="496" width="24" height="24" fill="#ffcc00" filter="url(#glow)" />
  <rect x="424" y="500" width="16" height="16" fill="#ffee88" />
  
  <rect x="660" y="496" width="24" height="24" fill="#00ccff" filter="url(#glow)" />
  <rect x="664" y="500" width="16" height="16" fill="#88eeff" />
  
  <rect x="900" y="496" width="24" height="24" fill="#cc44ff" filter="url(#glow)" />
  <rect x="904" y="500" width="16" height="16" fill="#ee88ff" />
  
  <rect x="1140" y="496" width="24" height="24" fill="#ff8800" filter="url(#glow)" />
  <rect x="1144" y="500" width="16" height="16" fill="#ffcc88" />
  
  <rect x="1380" y="496" width="24" height="24" fill="#44ff44" filter="url(#glow)" />
  <rect x="1384" y="500" width="16" height="16" fill="#88ff88" />

  

  
  
  <rect x="178" y="340" width="32" height="8" fill="#cc3300" />
  <rect x="182" y="348" width="8" height="8" fill="#ffcc99" />
  <rect x="178" y="356" width="16" height="24" fill="#cc3300" />
  <rect x="182" y="380" width="8" height="20" fill="#2244aa" />
  <rect x="178" y="356" width="4" height="16" fill="#884400" />
  
  <rect x="162" y="360" width="20" height="4" fill="#664400" />
  <rect x="158" y="360" width="4" height="4" fill="#888" />

  
  <rect x="420" y="360" width="16" height="16" fill="#ffcc00" filter="url(#glow)" />
  <rect x="436" y="340" width="8" height="28" fill="#ffcc00" filter="url(#glow)" />
  <rect x="436" y="340" width="20" height="8" fill="#ffcc00" filter="url(#glow)" />
  <rect x="400" y="376" width="16" height="16" fill="#ffcc00" filter="url(#glow)" />
  <rect x="416" y="356" width="8" height="28" fill="#ffcc00" filter="url(#glow)" />

  
  
  <rect x="620" y="420" width="80" height="28" fill="#884400" />
  <rect x="612" y="432" width="96" height="16" fill="#aa5500" />
  
  <rect x="652" y="320" width="8" height="104" fill="#cc8844" />
  
  <rect x="620" y="328" width="36" height="48" fill="#eeeedd" />
  <rect x="660" y="320" width="36" height="40" fill="#eeeedd" />
  
  <rect x="656" y="316" width="20" height="12" fill="#cc0000" />
  <rect x="660" y="316" width="4" height="12" fill="#fff" />
  <rect x="656" y="320" width="20" height="4" fill="#fff" />

  
  <rect x="884" y="380" width="8" height="60" fill="#664400" />
  <rect x="860" y="340" width="56" height="16" fill="#00aa44" />
  <rect x="852" y="356" width="72" height="16" fill="#00cc55" />
  <rect x="860" y="372" width="56" height="16" fill="#00aa44" />
  <rect x="868" y="388" width="40" height="12" fill="#009933" />

  
  
  <rect x="1124" y="364" width="56" height="56" fill="#cc9900" rx="0" />
  <rect x="1116" y="372" width="72" height="40" fill="#cc9900" />
  <rect x="1120" y="368" width="64" height="48" fill="#cc9900" />
  <rect x="1132" y="372" width="40" height="40" fill="#ffcc00" />
  
  <rect x="1144" y="376" width="24" height="4" fill="#886600" />
  <rect x="1140" y="380" width="4" height="4" fill="#886600" />
  <rect x="1144" y="384" width="24" height="4" fill="#886600" />
  <rect x="1164" y="388" width="4" height="4" fill="#886600" />
  <rect x="1144" y="392" width="24" height="4" fill="#886600" />
  <rect x="1148" y="372" width="4" height="28" fill="#886600" />

  
  <rect x="1376" y="320" width="8" height="8" fill="#eeeedd" />
  <rect x="1384" y="328" width="8" height="8" fill="#eeeedd" />
  <rect x="1392" y="336" width="8" height="8" fill="#eeeedd" />
  <rect x="1384" y="344" width="8" height="8" fill="#eeeedd" />
  <rect x="1376" y="352" width="8" height="8" fill="#eeeedd" />
  <rect x="1368" y="360" width="8" height="8" fill="#eeeedd" />
  <rect x="1384" y="360" width="8" height="64" fill="#ffcc88" opacity="0.8" />
  
  <rect x="1348" y="380" width="64" height="80" fill="#ffeecc" />
  <rect x="1348" y="380" width="64" height="8" fill="#ddcc99" />
  <rect x="1348" y="452" width="64" height="8" fill="#ddcc99" />
  
  <rect x="1356" y="396" width="48" height="4" fill="#664400" opacity="0.5" />
  <rect x="1356" y="408" width="48" height="4" fill="#664400" opacity="0.5" />
  <rect x="1356" y="420" width="48" height="4" fill="#664400" opacity="0.5" />
  <rect x="1356" y="432" width="32" height="4" fill="#664400" opacity="0.5" />

  
  
  <text x="192" y="560" font-family="monospace" font-size="18" fill="#ff4466" filter="url(#glow)" text-anchor="middle" font-weight="bold">NOV 1775</text>
  <text x="432" y="560" font-family="monospace" font-size="18" fill="#ffcc00" filter="url(#glow)" text-anchor="middle" font-weight="bold">JAN 1776</text>
  <text x="672" y="560" font-family="monospace" font-size="18" fill="#00ccff" filter="url(#glow)" text-anchor="middle" font-weight="bold">JAN 1776</text>
  <text x="912" y="560" font-family="monospace" font-size="18" fill="#cc44ff" filter="url(#glow)" text-anchor="middle" font-weight="bold">JAN 1776</text>
  <text x="1152" y="560" font-family="monospace" font-size="18" fill="#ff8800" filter="url(#glow)" text-anchor="middle" font-weight="bold">JUL 1776</text>
  <text x="1392" y="560" font-family="monospace" font-size="18" fill="#44ff44" filter="url(#glow)" text-anchor="middle" font-weight="bold">DEC 1776</text>

  
  <text x="192" y="590" font-family="monospace" font-size="14" fill="#ff4466" text-anchor="middle" opacity="0.8">MILITARY</text>
  <text x="432" y="590" font-family="monospace" font-size="14" fill="#ffcc00" text-anchor="middle" opacity="0.8">ARTS</text>
  <text x="672" y="590" font-family="monospace" font-size="14" fill="#00ccff" text-anchor="middle" opacity="0.8">POLITICS</text>
  <text x="912" y="590" font-family="monospace" font-size="14" fill="#cc44ff" text-anchor="middle" opacity="0.8">SCIENCE</text>
  <text x="1152" y="590" font-family="monospace" font-size="14" fill="#ff8800" text-anchor="middle" opacity="0.8">ECONOMICS</text>
  <text x="1392" y="590" font-family="monospace" font-size="14" fill="#44ff44" text-anchor="middle" opacity="0.8">CULTURE</text>

  
  
  
  <rect x="200" y="640" width="16" height="16" fill="#00ff88" filter="url(#glow)" />
  <rect x="216" y="640" width="16" height="80" fill="#00ff88" filter="url(#glow)" />
  <rect x="184" y="704" width="64" height="16" fill="#00ff88" filter="url(#glow)" />

  
  <rect x="280" y="640" width="80" height="16" fill="#00ff88" filter="url(#glow)" />
  <rect x="344" y="656" width="16" height="32" fill="#00ff88" filter="url(#glow)" />
  <rect x="328" y="688" width="16" height="16" fill="#00ff88" filter="url(#glow)" />
  <rect x="312" y="704" width="16" height="16" fill="#00ff88" filter="url(#glow)" />

  
  <rect x="392" y="640" width="80" height="16" fill="#00ff88" filter="url(#glow)" />
  <rect x="456" y="656" width="16" height="32" fill="#00ff88" filter="url(#glow)" />
  <rect x="440" y="688" width="16" height="16" fill="#00ff88" filter="url(#glow)" />
  <rect x="424" y="704" width="16" height="16" fill="#00ff88" filter="url(#glow)" />

  
  <rect x="504" y="640" width="80" height="16" fill="#00ff88" filter="url(#glow)" />
  <rect x="504" y="656" width="16" height="64" fill="#00ff88" filter="url(#glow)" />
  <rect x="520" y="688" width="48" height="16" fill="#00ff88" filter="url(#glow)" />
  <rect x="568" y="704" width="16" height="16" fill="#00ff88" filter="url(#glow)" />
  <rect x="504" y="704" width="80" height="16" fill="#00ff88" filter="url(#glow)" />

  
  <text x="768" y="790" font-family="monospace" font-size="72" fill="#ffffff" text-anchor="middle" font-weight="bold" filter="url(#glow)" letter-spacing="4">TIMELINE OF 1776</text>

  
  <text x="768" y="850" font-family="monospace" font-size="28" fill="#00ff88" text-anchor="middle" filter="url(#glow)" letter-spacing="8">* CHRONOLOGICAL INDEX *</text>

  
  <rect x="0" y="900" width="1536" height="8" fill="#00ff88" opacity="0.3" />
  <rect x="0" y="912" width="1536" height="4" fill="#00ff88" opacity="0.15" />

  
  <rect x="16" y="16" width="1504" height="992" fill="none" stroke="#00ff88" stroke-width="4" opacity="0.4" />
  <rect x="24" y="24" width="1488" height="976" fill="none" stroke="#00ff88" stroke-width="2" opacity="0.2" />

  
  <rect x="16" y="16" width="32" height="8" fill="#00ff88" opacity="0.8" />
  <rect x="16" y="16" width="8" height="32" fill="#00ff88" opacity="0.8" />
  <rect x="1488" y="16" width="32" height="8" fill="#00ff88" opacity="0.8" />
  <rect x="1512" y="16" width="8" height="32" fill="#00ff88" opacity="0.8" />
  <rect x="16" y="1000" width="32" height="8" fill="#00ff88" opacity="0.8" />
  <rect x="16" y="976" width="8" height="32" fill="#00ff88" opacity="0.8" />
  <rect x="1488" y="1000" width="32" height="8" fill="#00ff88" opacity="0.8" />
  <rect x="1512" y="976" width="8" height="32" fill="#00ff88" opacity="0.8" />

  
  <radialGradient id="vignette" cx="50%" cy="50%" r="70%">
    <stop offset="60%" stop-color="transparent" />
    <stop offset="100%" stop-color="#000" stop-opacity="0.6" />
  </radialGradient>
  <rect width="1536" height="1024" fill="url(#vignette)" />

  
  <rect x="0" y="0" width="1536" height="1024" fill="none" stroke="#000" stroke-width="0" style="background: repeating-linear-gradient(0deg, transparent, transparent 3px, rgba(0,0,0,0.1) 3px, rgba(0,0,0,0.1) 4px)" />
</svg>